<?xml version="1.0" standalone="no"?>
<!DOCTYPE svg PUBLIC "-//W3C//DTD SVG 1.1//EN" "http://www.w3.org/Graphics/SVG/1.1/DTD/svg11.dtd" >
<svg xmlns="http://www.w3.org/2000/svg">
<metadata>Generated by IcoMoon</metadata>
<defs>
<font id="PubliWeb-Apps" horiz-adv-x="1024">
<font-face units-per-em="1024" ascent="960" descent="-64" />
<missing-glyph horiz-adv-x="1024" />
<glyph unicode="&#x20;" horiz-adv-x="512" d="" />
<glyph unicode="&#xe100;" glyph-name="movein" d="M517.312 400.64l5.632 299.136c0 0 51.392 54.144 85.504 42.752 34.24-11.392 119.744-99.776 119.744-99.776l122.496 102.656c0 0 91.264-17.152 91.264-57.024s0-290.752 0-290.752 5.632-36.992-59.904-36.992c-36.224 0-62.72-424.64-62.72-424.64l-179.52 2.88-57.024 427.52c0 0-65.472-17.152-65.472 34.24zM841.216 851.776c0-59.77-51.691-108.224-115.456-108.224s-115.456 48.454-115.456 108.224c0 59.77 51.691 108.224 115.456 108.224s115.456-48.454 115.456-108.224zM289.664 448.768l-207.744-353.28h132.288l204.48 355.392-202.88 355.136-133.888 1.984z" />
<glyph unicode="&#xe101;" glyph-name="moveout" d="M95.552 400.576l5.632 299.136c0 0 51.392 54.208 85.504 42.816 34.24-11.456 119.744-99.776 119.744-99.776l122.496 102.592c0 0 91.2-17.152 91.2-57.024s0-290.688 0-290.688 5.696-36.992-59.84-36.992c-36.352 0-62.72-424.64-62.72-424.64l-179.52 2.88-56.96 427.456c0 0-65.536-17.088-65.536 34.24zM419.456 851.712c0-59.77-51.691-108.224-115.456-108.224s-115.456 48.454-115.456 108.224c0 59.77 51.691 108.224 115.456 108.224s115.456-48.454 115.456-108.224zM799.424 458.56l-207.68 353.28h132.288l204.416-355.264-202.88-355.264-133.824-1.984z" />
<glyph unicode="&#xe102;" glyph-name="move" d="M309.056 401.088l5.632 295.872c0 0 50.752 53.568 84.544 42.304 33.792-11.328 118.4-98.624 118.4-98.624l121.216 101.44c0 0 90.176-16.96 90.176-56.384s0-287.488 0-287.488 5.632-36.608-59.2-36.608c-35.904 0-62.016-419.968-62.016-419.968l-177.536 2.816-56.384 422.72c0 0-64.832-16.832-64.832 33.92zM629.44 847.232c0-59.134-51.118-107.072-114.176-107.072s-114.176 47.938-114.176 107.072c0 59.134 51.118 107.072 114.176 107.072s114.176-47.938 114.176-107.072zM896.448 458.432l-159.936 349.376h130.816l156.672-351.36-155.072-351.296-132.416-2.048zM127.552 448.768l159.936-349.376h-130.816l-156.672 351.36 155.072 351.296 132.416 1.984z" />
<glyph unicode="&#xe103;" glyph-name="adoption" d="M648.832 457.92l-121.664 239.36c0 0-51.456 54.272-85.696 42.88-34.304-11.456-120-99.968-120-99.968l-122.752 102.784c0 0-91.392-17.152-91.392-57.152 0-39.936 0-291.264 0-291.264s-5.696-37.12 59.968-37.12c36.352 0 66.688-413.824 66.688-413.824h172.928l87.936 598.592c0 0 89.856-118.976 102.656-124.224 21.824-8.96 51.328 7.488 51.328 39.936zM441.152 851.456c0-59.912-51.777-108.48-115.648-108.48s-115.648 48.568-115.648 108.48c0 59.912 51.777 108.48 115.648 108.48s115.648-48.568 115.648-108.48zM583.104 444.416l38.016 37.952c0 0 72.512-52.544 93.184-59.52 20.8-6.848 72.704-60.48 72.704-60.48l74.304 62.272c0 0 55.36-10.368 55.36-34.56s0-176.448 0-176.448 3.456-22.464-36.288-22.464c-22.080 0-37.248-255.168-37.248-255.168h-108.928l-59.968 424.96c0 0-91.136 52.288-91.136 83.456zM855.552 489.216c0-36.265-31.376-65.664-70.080-65.664s-70.080 29.399-70.080 65.664c0 36.265 31.376 65.664 70.080 65.664s70.080-29.399 70.080-65.664z" />
<glyph unicode="&#xe104;" glyph-name="acknowledgement" d="M275.968 400.96c0 0 97.728-8.256 189.12 257.408 0 0 107.968 99.648 116.224 174.4l8.32 124.544c0 0 141.12 33.216 141.12-132.864s-66.368-199.296-66.368-199.296l0.896-59.712h248.192c0 0 141.568-81.024 58.112-164.544-41.472-41.472 40.512-66.24 41.472-91.328 0.96-23.616-58.112-41.472-58.112-74.688 0-33.28 49.792-91.392-33.216-141.184v-74.688c0 0-58.112-83.072-116.224-83.072s-380.096 0-529.536 49.792v415.232zM224.256 400.96c0 0 0 40.32-24.96 40.32-24.896 0-163.584 0-163.584 0s-24.896-15.36-24.896-32c0-16.576 0-440.064 0-440.064s8.256-16.576 24.896-16.576c16.576 0 155.264 0 155.264 0s33.216 0 33.216 24.896c0.064 24.896 0.064 423.424 0.064 423.424z" />
<glyph unicode="&#xe105;" glyph-name="separation" d="M391.104 828.864c0-64.33-55.617-116.48-124.224-116.48s-124.224 52.15-124.224 116.48c0 64.33 55.617 116.48 124.224 116.48s124.224-52.15 124.224-116.48zM473.984 467.456c0 76.16 0 180.416 0 204.864 0 39.488-90.432 56.512-90.432 56.512l-121.536-101.696c0 0-84.8 87.552-118.656 98.88-33.92 11.328-84.864-42.432-84.864-42.432l-4.096-216.128h419.584zM14.912-64h1009.088v1027.712l-1009.088-1027.712zM755.136 488.704c68.608 0 124.224-52.224 124.224-116.544 0-64.384-55.616-116.48-124.224-116.48-68.48 0-124.096 52.096-124.096 116.48-0.064 64.256 55.616 116.544 124.096 116.544zM960 0h-417.28l4.032 221.376c0 0 50.944 56.512 84.864 45.248 33.856-11.392 118.72-97.6 118.72-97.6l120.32 102.464c0 0 89.344-16.384 89.344-55.936 0-24.512 0-151.552 0-215.552z" />
<glyph unicode="&#xe106;" glyph-name="undo-separation" d="M655.872 839.424h-16.64l-0.384 54.592c-32.448-27.2-119.808-97.216-155.072-125.376l155.392-134.4v64.128l11.52 3.84c1.28 0.448 30.72 10.048 83.264 10.048 21.12 0 112.896-2.816 171.008-49.6-21.056 61.248-83.072 176.768-249.088 176.768zM735.744 714.368c-52.608 0-81.984-9.6-83.264-10.048l-11.52-3.84v-1.408l9.472 3.136c1.28 0.384 30.72 10.048 83.392 10.048 7.616 0 24.768-0.384 46.016-3.136l2.112 2.112c-21.312 2.752-38.464 3.136-46.208 3.136zM483.776 768.64l155.392-134.4v3.776l-153.216 132.416c-0.704-0.576-1.536-1.216-2.176-1.792zM370.816 819.584c0-64.754-54.901-117.248-122.624-117.248s-122.624 52.494-122.624 117.248c0 64.754 54.901 117.248 122.624 117.248s122.624-52.494 122.624-117.248zM452.544 662.080c0 39.808-89.216 56.896-89.216 56.896l-119.936-102.336c0 0-83.648 88.064-117.12 99.456s-83.712-42.688-83.712-42.688l-4.032-217.408h414.016c0 76.608 0 181.44 0 206.080zM862.656 792.96c65.024-64.384 84.672-147.2 84.672-166.336 0-18.432-11.072-26.688-22.336-26.688-5.248 0-9.088 1.728-10.688 2.496l-4.288 2.368-2.368 4.352c-32.384 56.384-121.728 70.080-158.656 72.064l-749.376-745.216h1024.384v1019.2l-161.344-162.24zM729.984 477.312c67.648 0 122.496-52.544 122.496-117.248 0-64.768-54.848-117.248-122.496-117.248s-122.624 52.544-122.624 117.312c0 64.64 55.040 117.184 122.624 117.184zM960 0h-439.68l4.032 215.616c0 0 50.24 53.184 83.648 41.792 33.472-11.392 117.12-99.968 117.12-99.968l132.8 102.208c0 0 102.080-17.344 102.080-57.216 0-24.448 0-138.432 0-202.432z" />
<glyph unicode="&#xe107;" glyph-name="partnership" d="M512 540.16l48 156.416c0 0 51.968 54.784 86.528 43.264 34.56-11.584 121.088-100.864 121.088-100.864l123.904 103.744c0 0 92.224-17.344 92.224-57.664s0-293.952 0-293.952 5.76-37.504-60.48-37.504c-36.736 0-67.392-417.6-67.392-417.6h-174.528l-88.768 604.16c0 0-10.176-6.272-22.976-11.584-22.016-9.088-57.6-21.184-57.6 11.584zM512 540.16l-48 156.416c0 0-51.904 54.784-86.464 43.264-34.56-11.584-121.024-100.864-121.024-100.864l-123.968 103.744c0 0-92.224-17.344-92.224-57.664s0-293.952 0-293.952-5.76-37.504 60.544-37.504c36.672 0 67.264-417.6 67.264-417.6h174.528l88.768 604.16c0 0 10.176-6.272 23.040-11.584 21.952-9.088 57.536-21.184 57.536 11.584zM881.92 850.496c0-60.442-52.264-109.44-116.736-109.44s-116.736 48.998-116.736 109.44c0 60.442 52.264 109.44 116.736 109.44s116.736-48.998 116.736-109.44zM377.216 850.496c0-60.442-52.264-109.44-116.736-109.44s-116.736 48.998-116.736 109.44c0 60.442 52.264 109.44 116.736 109.44s116.736-48.998 116.736-109.44zM431.424 540.16l46.016-207.168c0 0 11.52-40.256 34.56-40.256s40.256 40.256 40.256 40.256l40.32 207.168c0 0-51.84 0-80.576 0-28.8 0-80.576 0-80.576 0z" />
<glyph unicode="&#xe108;" glyph-name="undo-partnership" d="M983.68 391.104c0 0 0 253.632 0 293.952s-92.224 57.664-92.224 57.664l-123.904-103.744c0 0-86.528 89.28-121.088 100.864-34.496 11.52-86.464-43.264-86.464-43.264l-48-156.416-48 156.416c0 0-51.904 54.784-86.464 43.264-34.56-11.584-121.024-100.864-121.024-100.864l-123.968 103.744c0 0-92.224-17.344-92.224-57.664s0-293.952 0-293.952-5.76-37.504 60.544-37.504c36.672 0 67.264-417.6 67.264-417.6h174.528l15.552 105.728-95.744 82.816c-4.608 4.544-7.104 10.496-7.104 16.64 0 9.152 5.44 15.168 7.104 16.896l1.344 1.28c37.504 29.952 88.704 71.040 126.592 101.696l41.024 279.104 46.016-207.168c0 0 11.52-40.256 34.56-40.256s40.256 40.256 40.256 40.256l40.32 207.168 50.112-341.376c98.816-66.24 125.952-179.456 125.952-202.432 0-18.752-11.648-27.136-23.104-27.136-5.248 0-9.408 1.728-11.008 2.56l-4.544 2.304-2.56 4.416c-12.992 22.656-35.136 38.080-59.456 48.576l13.376-91.072h174.528c0 0 30.656 417.6 67.392 417.6 66.176 0 60.416 37.504 60.416 37.504zM881.856 850.496c0-60.477-52.264-109.504-116.736-109.504s-116.736 49.027-116.736 109.504c0 60.477 52.264 109.504 116.736 109.504s116.736-49.027 116.736-109.504zM377.152 850.496c0-60.477-52.264-109.504-116.736-109.504s-116.736 49.027-116.736 109.504c0 60.477 52.264 109.504 116.736 109.504s116.736-49.027 116.736-109.504zM475.008 211.712h-16.96l-0.384 55.552c-33.152-27.712-122.112-99.008-158.016-127.68l158.336-136.896v65.344l11.648 3.968c1.28 0.384 31.296 10.176 84.864 10.176 21.504 0 114.944-2.88 174.144-50.496-21.504 62.272-84.608 180.032-253.632 180.032z" />
<glyph unicode="&#xe109;" glyph-name="naturalize-foreigner" d="M478.656 398.4l5.632 300.352c0 0 51.584 54.336 85.824 42.88 34.368-11.392 120.192-100.096 120.192-100.096l123.008 103.040c0 0 91.648-17.216 91.648-57.28s0-291.904 0-291.904 5.632-37.12-60.096-37.12c-36.416 0-61.632-422.272-61.632-422.272h-180.224l-58.624 427.968c0 0-65.728-17.152-65.728 34.432zM803.84 851.328c0-60.018-51.892-108.672-115.904-108.672s-115.904 48.654-115.904 108.672c0 60.018 51.892 108.672 115.904 108.672s115.904-48.654 115.904-108.672zM411.52 399.168c-18.56-0.128-65.024 0-65.024 0v24.384h16.256v40.64h-178.816v-40.64l16.896 0.32v-24.576l-65.664-0.128c0 0-16.256 0.128-16.256-16.192s0-405.504 0-405.504 4.096-16.448 16.384-16.448 16.384 0 16.384 0v-24.576h32.768v24.576h180.224v-24.576h32.768v24.576h16.384c0 0 13.952-0.896 13.952 15.488s0 406.464 0 406.464 0.128 16.32-16.256 16.192zM337.536 423.552h-114.624v24.576h114.688v-24.576z" />
<glyph unicode="&#xe10a;" glyph-name="naturalize-swiss" d="M969.28 887.808c-288.768 80-457.28 72-457.28 72v-0.192c0 0-168.448 8-457.28-72-72.128-847.872 457.28-951.616 457.28-951.616s529.408 104 457.28 951.808zM880 400.128h-239.36v-248h-248v248h-248v232h247.36v256h248.64v-256h239.36v-232zM400 479.68v166.016c0 0 27.904 30.080 46.784 23.744 19.072-6.336 66.496-55.36 66.496-55.36l68.032 56.96c0 0 50.624-9.472 50.624-31.616s0-161.344 0-161.344 3.136-20.544-33.216-20.544c-20.16 0-34.112-233.344-34.112-233.344h-99.584l-32.448 236.48c0 0-32.576-9.472-32.576 19.008zM576.064 730.048c0-33.155-28.682-60.032-64.064-60.032s-64.064 26.877-64.064 60.032c0 33.155 28.682 60.032 64.064 60.032s64.064-26.877 64.064-60.032z" />
<glyph unicode="&#xe10b;" glyph-name="marriage" d="M741.472 861.888l-85.44 87.968-63.2-87.968zM642.016 960h-117.248l55.392-80.32zM568.032 861.888l-55.936 85.152-55.744-85.152zM497.696 960h-113.536l57.216-84zM370.336 951.776l-81.216-89.888h137.504zM292.896 845.568l195.744-246.656-57.088 246.656zM562.176 845.568h-106.624l61.056-273.856zM587.232 845.568l-45.728-245.12 200.256 245.12zM602.016 638.912l-50.432-54.752c168.416-17.152 299.616-141.632 299.616-292.416 0-162.4-152.192-294.528-339.232-294.528s-339.2 132.128-339.2 294.528c0 151.648 132.736 276.864 302.656 292.768l-54.144 54.208c-186.080-35.392-325.312-177.184-325.312-346.976 0-196.48 186.272-355.744 416.032-355.744s416.032 159.264 416.032 355.744c0 170.048-139.552 311.968-326.016 347.168z" />
<glyph unicode="&#xe10c;" glyph-name="undo-marriage" d="M365.888 253.088l180.256-155.872c0 0 12.256-12.256 24.384 0v73.024c0 0 29.184 9.76 82.816 9.76 53.6 0 160.736-14.688 199.744-82.784 0 0 9.696-4.896 9.696 9.696s-43.776 243.584-292.256 243.584l-0.448 62.944c0 0-7.456 10.784-17.856 0.384-10.304-10.336-186.336-150.976-186.336-150.976s-4.896-4.928 0-9.76zM741.472 861.888l-85.44 87.968-63.232-87.968zM642.016 960h-117.248l55.392-80.32zM568 861.888l-55.936 85.152-55.712-85.152zM497.696 960h-113.536l57.216-84zM370.336 951.808l-81.216-89.92h137.504zM292.896 845.6l195.744-246.688-57.088 246.688zM562.176 845.6h-106.624l61.056-273.888zM587.264 845.6l-45.76-245.152 200.256 245.152zM928.032 291.744c0 170.016-139.552 311.968-326.016 347.168l-50.464-54.752c168.448-17.152 299.616-141.632 299.616-292.416 0-17.888-2.112-35.328-5.632-52.352 23.2-35.968 36.736-71.584 43.744-97.536 24.832 45.568 38.752 96.32 38.752 149.888zM824.64 80.928c-8.768 15.328-22.944 27.264-39.744 36.64-61.824-72.8-160.928-120.352-272.864-120.352-187.040 0-339.232 132.128-339.232 294.528 0 151.68 132.736 276.896 302.656 292.768l-54.144 54.24c-186.112-35.424-325.344-177.216-325.344-347.008 0-196.48 186.272-355.744 416.032-355.744 131.136 0 248 51.936 324.256 132.96l-6.752 3.36-4.864 8.608z" />
<glyph unicode="&#xe10d;" glyph-name="change-marital-status" d="M741.472 861.888l-85.44 87.968-63.232-87.968zM642.016 960h-117.248l55.392-80.32zM568.032 861.888l-55.968 85.152-55.712-85.152zM497.696 960h-113.536l57.216-84zM370.336 951.808l-81.216-89.92h137.504zM292.928 845.568l195.712-246.624-57.088 246.624zM562.176 845.568h-106.624l61.056-273.856zM587.232 845.568l-45.728-245.12 200.256 245.12zM851.232 291.776c0-162.432-152.192-294.56-339.232-294.56-6.208 0-12.32 0.544-18.464 0.8l-87.808-50.272c33.952-7.616 69.536-11.744 106.272-11.744 229.76 0 416.032 159.296 416.032 355.776 0 52.672-13.44 102.624-37.504 147.584l-50.912-72.096c7.424-24.096 11.616-49.344 11.616-75.488zM602.016 638.912l-50.432-54.752c39.776-4.064 77.376-14.304 111.808-29.248l37.824 53.536c-31.040 13.536-64.288 23.872-99.2 30.464zM172.768 291.776c0 151.648 132.736 276.864 302.656 292.768l-54.144 54.208c-186.080-35.424-325.312-177.184-325.312-346.976 0-157.536 119.776-291.072 285.664-337.856l11.296 62.368c-128.416 42.048-220.16 149.504-220.16 275.488zM464.416 216.352l251.616 356.256 152.448-107.68-251.584-356.288-152.48 107.712zM742.624 501.696l-16.704 11.776-202.496-286.752 16.672-11.776 202.528 286.752zM776.064 478.112l-16.736 11.808-202.464-286.752 16.672-11.808 202.528 286.752zM809.504 454.56l-16.704 11.776-202.496-286.752 16.672-11.776 202.528 286.752zM764.288 640c13.248 18.752 39.040 23.296 57.568 10.144l84.064-59.36c18.592-13.12 22.88-38.912 9.632-57.6l-36.64-51.936-151.264 106.816 36.64 51.936zM457.344 197.728l144.32-102.016-101.312-56.832-62.72 44.32 19.712 114.528zM481.12 28.672l-58.72-33.632 12.032 66.56 46.688-32.928z" />
<glyph unicode="&#xe10e;" glyph-name="divorce" d="M741.472 861.888l-85.44 87.968-63.2-87.968zM642.016 960h-117.248l55.392-80.32zM568.032 861.888l-55.936 85.184-55.744-85.184zM497.728 960h-113.568l57.216-84zM370.336 951.776l-81.216-89.888h137.504zM292.896 845.6l195.776-246.656-57.152 246.656zM562.176 845.6h-106.624l61.056-273.888zM587.232 845.6l-45.728-245.152 200.256 245.152zM475.424 584.544l-54.144 54.208c-53.984-10.24-103.776-29.696-147.584-55.936l53.984-44.096c43.456 24.544 93.664 40.736 147.744 45.824zM512-2.784c-187.040 0-339.232 132.128-339.232 294.528 0 55.968 18.144 108.256 49.504 152.832l-55.552 45.408c-44.64-56.64-70.752-124.768-70.752-198.208 0-196.48 186.272-355.776 416.032-355.776 92.704 0 178.304 25.984 247.456 69.792l-54.144 44.256c-54.912-33.216-121.472-52.832-193.312-52.832zM928.032 291.744c0 170.016-139.552 311.968-326.016 347.168l-50.432-54.752c168.416-17.152 299.616-141.632 299.616-292.416 0-52.608-16.16-101.888-44.096-144.672l56.128-45.888c40.992 55.136 64.8 120.48 64.8 190.56zM856.928-31.456l-736.352 601.44 46.848 57.28 736.384-601.44-46.88-57.28z" />
<glyph unicode="&#xe10f;" glyph-name="missing" d="M634.304 269.184l-1.408 37.504c-4.288 73.536 20.096 148.608 85.12 225.152 46.208 56.32 81.152 103.936 83.648 151.488 2.432 45.568-32.768 80.768-94.336 98.304-51.456 14.656-112.064-0.448-149.504-26.368l-52.8 149.568c53.376 30.336 143.808 43.968 246.336 43.968 190.592-0.064 272.64-111.104 272.64-230.784 0-109.696-69.376-181.824-124.096-242.496-52.032-59.2-75.072-115.52-73.664-180.352v-25.92h-191.936zM596.8 78.528c0 78.080 53.376 131.392 128.448 131.392 77.952 0 128.512-53.312 129.856-131.392 0-75.008-50.56-131.264-129.856-131.264-76.48 0-128.448 56.256-128.448 131.264zM531.392 684.864l-70.336 202.304-8.832 17.664c-8.768 0-19.584 3.52-51.84 3.52-129.152-0.064-233.984-98.496-233.984-219.712s104.832-219.584 233.984-219.584c129.28 0 234.176 98.304 234.176 219.584 0 14.080-1.472 27.84-4.16 41.216-37.056-3.008-99.008-44.992-99.008-44.992zM601.728 192.448v158.208c0 70.144 26.432 116.992 46.912 142.784-16.896 4.48-28.416 6.656-28.416 6.656l-228.992-191.744c0 0-159.808 164.992-223.744 186.368-63.808 21.312-159.744-79.936-159.744-79.936l-7.744-407.232h580.224c-10.496 22.272-16.32 47.744-16.32 75.328 0.064 44.096 13.952 81.664 37.824 109.568z" />
<glyph unicode="&#xe110;" glyph-name="undo-missing" d="M532.096 694.4l-71.168 167.616-8.512 17.024c-8.576 0-33.728 3.392-64.96 3.392-124.992 0-226.432-95.232-226.432-212.544s101.44-212.48 226.432-212.48c125.12 0 226.56 95.104 226.56 212.48 0 13.568-1.344 26.88-4.032 39.808-35.712-2.816-77.888-15.296-77.888-15.296zM390.848 268.096l189.312-163.712c0 0 12.8-12.8 25.6 0v76.736c0 0 30.656 10.176 86.912 10.176 56.32 0 168.832-15.296 209.728-86.912 0 0 10.24-5.12 10.24 10.24s-46.080 255.744-306.944 255.744l-0.32 66.176c0 0-7.872 11.264-18.752 0.448-10.88-10.88-195.776-158.656-195.776-158.656s-5.056-5.056 0-10.24zM717.568 770.88c59.648-17.024 93.632-51.072 91.328-95.168-2.496-45.952-36.288-92.032-81.024-146.56-27.712-32.64-47.616-64.96-61.056-97.088l0.064-4.16c73.6-10.112 129.472-38.208 171.584-71.424 9.408 40.512 30.72 78.656 65.472 118.208 52.992 58.624 120.064 128.448 120.064 234.624 0 115.904-79.36 223.36-263.872 223.36-99.2 0-186.752-13.248-238.4-42.56l51.136-144.704c36.288 25.088 94.912 39.744 144.704 25.472zM849.216 73.92c-20.992 36.8-94.656 56-156.416 56-9.408 0-17.92-0.32-25.472-0.832v-50.048l-17.984-17.984c-8.768-8.832-19.072-15.232-30.208-19.2 17.216-46.912 59.648-78.528 115.904-78.528 65.408 0 110.528 39.68 122.432 96.32l-8.256 14.272zM539.52 58.432l-192.128 166.4c-27.2 27.264-27.136 69.888 0.128 97.088l4.992 4.48c0.384 0.256 0.704 0.512 1.024 0.768-46.336 45.824-144.96 139.52-191.424 155.072-61.824 20.608-162.112-77.376-162.112-77.376v-394.112h561.536c-5.888 12.48-10.048 26.112-12.672 40.512-3.904 2.624-7.104 5.184-9.344 7.168z" />
<glyph unicode="&#xe111;" glyph-name="death" d="M513.088 616h1.6c-0.32 2.432-0.64 4.928-0.704 7.552 0 0-0.256-3.008-0.896-7.552zM704 960h-383.744l-104.256-320 104-704h384l104 704-104 320zM590.080 435.84c-16.96-10.56-46.4-8.064-73.856-17.664 0.704-24.704 1.6-41.472 1.6-41.472h-54.272c9.984 2.112 17.984 29.12 24.256 64.192-29.824 6.336-60.224-1.984-79.552 6.016-37.632 15.68-72.256 52.416-72.256 52.416 85.312 36.992 134.656-16.064 154.048-45.056 7.232 45.952 11.776 101.312 14.016 133.888-7.808-15.104-21.696-29.44-46.656-29.44-53.12 0-49.664 51.776-44.608 62.784s19.072 35.648 44.608 41.344c0 0-79.104-11.456-81.344 46.656-2.304 58.176 73.088 64.64 102.976 21.376 0 0-12.864 21.12-12.864 45.312 0 24.128 12.416 47.808 45.952 47.808s49.216-21.184 49.216-49.216-11.52-42.752-11.52-42.752 22.976 27.392 53.312 27.392c0 0 47.808 2.56 47.808-48.96 0-51.456-62.016-50.752-79.488-45.312 0 0 46.848-23.424 46.848-60.224s-40.704-45.76-50.752-45.76c-7.296 0-30.656 6.464-44.032 29.44-7.68-35.456-8.576-96.896-7.872-144.512 18.944 32.384 59.328 74.752 137.152 55.296 0 0-28.096-41.92-62.72-63.552zM561.088 683.904c0-25.697-20.831-46.528-46.528-46.528s-46.528 20.831-46.528 46.528c0 25.697 20.831 46.528 46.528 46.528s46.528-20.831 46.528-46.528z" />
<glyph unicode="&#xe112;" glyph-name="correct-person" d="M530.048 711.36c0-103.812-89.744-187.968-200.448-187.968s-200.448 84.156-200.448 187.968c0 103.812 89.744 187.968 200.448 187.968s200.448-84.156 200.448-187.968zM437.76 268.864c0 103.168 49.792 194.752 126.656 251.968-23.36 7.168-41.408 10.56-41.408 10.56l-196.096-164.16c0 0-136.832 141.248-191.552 159.552s-135.36-68.416-135.36-68.416v-348.672h481.152c-27.52 46.656-43.392 101.056-43.392 159.168zM751.616 541.248c-150.4 0-272.32-121.92-272.32-272.384 0-150.4 121.984-272.32 272.32-272.32 150.464 0 272.384 121.92 272.384 272.32 0 150.464-121.92 272.384-272.384 272.384zM687.232 65.408l-11.712 11.776-140.48 140.416 70.272 70.272 93.632-93.696 210.688 210.688 58.56-58.496-280.96-280.96z" />
<glyph unicode="&#xe113;" glyph-name="guardian" d="M552.384 759.552c0 0-20.416 26.88-28.544 35.712s-8.128 5.44-17.536 7.040-138.688-60.224-151.104-66.048-24.512 9.984-21.44 20.864c3.072 10.88 164.032 71.744 174.528 73.344s21.952-4.928 32-12.416c10.112-7.424 38.144-48.832 38.144-48.832s314.112-15.872 331.904-5.248c17.728 10.56 41.024 52.096 41.024 52.096-54.848 25.536-462.528 144.832-483.776 143.936-34.24-1.408-20.48 0.128-40.768-2.048s-265.92-176-265.92-176l-88.256-9.408v-181.504l124.096-25.408c180.736-32.064 355.648 193.92 355.648 193.92zM808.512 482.112c0-97.202-84.042-176-187.712-176s-187.712 78.798-187.712 176c0 97.202 84.042 176 187.712 176s187.712-78.798 187.712-176zM936.512-64c0 115.072 0 272.64 0 309.504 0 59.84-136.64 85.44-136.64 85.44l-183.616-153.664c0 0-128.192 132.288-179.456 149.44-51.2 17.088-129.536-64.128-129.536-64.128v-326.592h629.248z" />
<glyph unicode="&#xe114;" glyph-name="undo-guardian" d="M455.36 749.312c0 0-19.392 25.536-27.136 33.92s-7.744 5.12-16.64 6.656c-8.896 1.536-131.584-57.152-143.424-62.72-11.712-5.504-23.232 9.472-20.352 19.776s155.712 68.096 165.696 69.568c9.984 1.536 20.8-4.672 30.464-11.776 9.536-7.040 36.224-46.336 36.224-46.336s298.048-15.040 314.944-4.992c16.96 10.048 38.848 49.472 38.848 49.472-52.032 24.192-438.976 137.408-459.136 136.576-32.448-1.216-19.392 0.256-38.72-1.792-19.264-2.048-252.352-167.040-252.352-167.040l-83.776-9.024v-172.288l117.824-24.128c171.52-30.4 337.536 184.128 337.536 184.128zM690.304 485.952c0-92.289-79.772-167.104-178.176-167.104s-178.176 74.815-178.176 167.104c0 92.289 79.772 167.104 178.176 167.104s178.176-74.815 178.176-167.104zM461.888 81.728c-27.008 27.072-27.008 69.504 0.128 96.512l4.992 4.48c9.984 8 20.16 16.192 30.4 24.32-30.464 30.528-119.808 117.952-159.872 131.328-48.64 16.192-123.008-60.864-123.008-60.864v-310.016h379.264l-131.904 114.24zM505.088 124.864l188.224-162.816c0 0 12.672-12.672 25.408 0v76.352c0 0 30.528 10.176 86.464 10.176 56 0 167.872-15.296 208.64-86.528 0 0 10.176-5.056 10.176 10.176s-45.824 254.4-305.28 254.4l-0.448 65.664c0 0-7.872 11.264-18.624 0.448-10.816-10.816-194.624-157.76-194.624-157.76s-4.992-5.056 0.064-10.112z" />
<glyph unicode="&#xe115;" glyph-name="change-guardian" d="M450.368 744c0 0-19.136 25.28-26.816 33.536s-7.68 5.12-16.512 6.656c-8.832 1.472-130.176-56.576-141.824-62.080-11.648-5.44-22.976 9.408-20.096 19.584s153.92 67.328 163.84 68.864c9.856 1.472 20.544-4.608 30.016-11.648 9.536-6.976 35.904-45.824 35.904-45.824s294.784-14.848 311.488-4.928 38.464 48.96 38.464 48.96c-51.456 23.936-434.176 135.936-454.080 135.104-32.064-1.344-19.2 0.128-38.272-1.92s-249.6-165.184-249.6-165.184l-82.88-8.96v-170.432l116.48-23.872c169.664-30.016 333.888 182.144 333.888 182.144zM476.352 196.416l14.464 20.416c-36.032 35.648-112.832 108.672-148.992 120.768-48.128 16-121.6-60.16-121.6-60.16v-306.56h230.912l25.216 225.536zM704.64 35.264l-123.008-64.384h229.312c0 68.928 0 154.048 0 215.68-59.776-84.992-106.304-151.296-106.304-151.296zM568.192 326.144l121.792 172.032c-7.872 84.416-83.456 150.72-175.488 150.72-97.216 0-176.128-74.112-176.128-165.376s78.912-165.248 176.128-165.248c18.752 0.064 36.736 2.816 53.696 7.872zM534.848 199.68l268.16 379.776 162.496-114.752-268.16-379.776-162.496 114.752zM831.424 503.872l-17.792 12.544-215.872-305.6 17.792-12.608 215.872 305.664zM867.072 478.72l-17.792 12.544-215.936-305.664 17.792-12.544 215.936 305.664zM902.656 453.568l-17.792 12.608-215.872-305.664 17.792-12.608 215.872 305.664zM854.656 651.328c14.080 19.968 41.472 24.832 61.312 10.816l89.536-63.296c19.84-13.952 24.448-41.472 10.304-61.44l-39.040-55.36-161.28 113.856 39.168 55.424zM527.296 179.84l153.856-108.672-108.032-60.608-66.88 47.232 21.056 122.048zM552.704-0.384l-62.592-35.84 12.8 70.912 49.792-35.072z" />
<glyph unicode="&#xe116;" glyph-name="contact-address" d="M898.112 31.488h26.048c0 0 17.344 0 17.344 25.984 0 17.344 0 815.744 0 815.744s0 26.048-25.984 26.048c-26.048 0-668.224 0-668.224 0s-17.344-8.64-17.344-43.392h-78.080c0 0 8.704 104.128 78.144 104.128 69.376 0 728.96 0 728.96 0s25.984-8.704 25.984-34.688 0-928.512 0-928.512 0-25.984-34.752-25.984c-34.624 0-52.032 0-52.032 0v60.672zM153.536-29.184c0 0-114.496-6.656-114.496 89.472 0 76.416 79.232 79.36 79.232 79.36s64.704 1.216 86.336 0c15.168-0.832 42.688-4.608 42.688-43.072s-41.024-41.344-48.448-41.408c-7.488-0.128-69.888 0-69.888 0s-23.68 3.008-23.68-21.568c0-31.872 30.72-61.376 48.256-62.784zM153.536 180.48c0 0-114.496-6.592-114.496 89.536 0 76.224 79.232 79.168 79.232 79.168s64.704 1.216 86.336 0c15.168-0.768 42.688-4.416 42.688-42.88s-41.024-41.344-48.448-41.408c-7.488-0.128-69.888 0-69.888 0s-23.68 3.008-23.68-21.568c0-31.744 30.72-61.44 48.256-62.848zM153.536 392.704c0 0-114.496-6.656-114.496 89.472 0 76.352 79.232 79.424 79.232 79.424s64.704 1.152 86.336 0c15.168-0.896 42.688-4.608 42.688-43.072s-41.024-41.28-48.448-41.408c-7.488-0.128-69.888 0-69.888 0s-23.68 2.88-23.68-21.632c0-31.808 30.72-61.44 48.256-62.784zM153.536 601.984c0 0-114.496-6.656-114.496 89.472 0 76.352 79.232 79.36 79.232 79.36s64.704 1.152 86.336 0c15.168-0.896 42.688-4.608 42.688-43.072s-41.024-41.344-48.448-41.472c-7.488-0.128-69.888 0-69.888 0s-23.68 3.008-23.68-21.504c0-31.808 30.72-61.44 48.256-62.784zM539.84 389.696c0-27.776 12.352-45.312 36.48-45.312 27.008 0 55.488 34.368 62.080 76.672l10.24 69.312c-5.888 1.472-13.888 2.88-22.656 2.88-48.192 0.064-86.144-47.36-86.144-103.552zM854.72 855.872h-702.848c0 0 0-11.84 0-32.512 6.784 0.064 13.888 0.064 20.8 0.064 16 0 27.328-0.192 34.688-0.576 67.904-4.032 92.032-51.776 92.032-95.040 0-53.76-40.896-92.224-99.392-93.504-4.416-0.064-24.576-0.064-42.56-0.064l-0.192-20.16c5.12 0 10.368 0.064 15.424 0.064 16 0 27.328-0.192 34.688-0.576 67.904-3.84 92.032-51.648 92.032-95.040 0-60.032-50.048-92.48-99.456-93.44-4.16-0.128-24.384-0.128-42.432-0.128l-0.256-23.104c5.12 0 10.368 0 15.424 0 16 0 27.328-0.192 34.688-0.576 67.84-3.584 92.032-51.328 92.032-94.912 0-60.928-50.368-93.184-100.16-93.504-3.008-0.064-23.744-0.064-41.792-0.064l-0.192-20.608c5.12 0.064 10.368 0.064 15.488 0.064 16 0 27.328-0.192 34.688-0.576 67.84-3.584 92.032-51.456 92.032-95.040 0-62.784-51.52-92.48-99.456-93.504-4.096-0.064-24.256-0.064-42.304-0.064l-0.704-53.888c7.488-12.992 20.864-13.184 20.864-13.184s650.88 0 685.568 0 34.688 34.752 34.688 34.752 0 815.68 0 850.432-43.392 34.688-43.392 34.688zM707.008 285.248c-34.304 0-59.136 18.304-62.784 56.256h-1.408c-23.36-36.544-55.488-56.256-94.848-56.256-46.72 0-81.792 35.84-81.792 95.68 0 89.792 66.432 170.112 171.648 170.112 32.064 0 68.544-8 86.848-17.536l-21.952-135.808c-7.296-43.072-2.176-62.784 18.24-63.552 31.36-1.408 70.784 38.656 70.784 123.392 0 95.616-61.312 168.64-174.528 168.64-112.448 0-209.472-86.912-209.472-227.072 0-122.688 77.376-191.296 186.176-191.296 37.184 0 77.312 8 106.56 22.656l13.184-41.6c-43.904-19.712-81.792-26.24-134.4-26.24-121.216 0-227.84 86.848-227.84 229.952 0 148.928 108.8 278.208 273.088 278.208 129.28 0 221.248-88.384 221.248-211.008 0-107.328-59.904-174.528-138.752-174.528z" />
<glyph unicode="&#xe117;" glyph-name="address-lock" d="M117.632-29.184c0 0-114.496-6.656-114.496 89.472 0 76.416 79.232 79.36 79.232 79.36s64.768 1.216 86.336 0c15.168-0.832 42.688-4.608 42.688-43.072 0-38.528-41.024-41.344-48.448-41.408-7.488-0.128-69.888 0-69.888 0s-23.68 2.944-23.68-21.568c0-31.872 30.72-61.376 48.256-62.784zM117.632 180.48c0 0-114.496-6.592-114.496 89.536 0 76.224 79.232 79.168 79.232 79.168s64.768 1.216 86.336 0c15.168-0.768 42.688-4.416 42.688-42.88s-41.024-41.344-48.448-41.408c-7.488-0.128-69.888 0-69.888 0s-23.68 3.008-23.68-21.568c0-31.744 30.72-61.44 48.256-62.848zM117.632 392.704c0 0-114.496-6.656-114.496 89.472 0 76.352 79.232 79.424 79.232 79.424s64.768 1.152 86.336 0c15.168-0.896 42.688-4.608 42.688-43.072s-41.024-41.28-48.448-41.408c-7.488-0.128-69.888 0-69.888 0s-23.68 2.88-23.68-21.632c0-31.808 30.72-61.44 48.256-62.784zM117.632 601.984c0 0-114.496-6.656-114.496 89.472 0 76.352 79.232 79.36 79.232 79.36s64.768 1.152 86.336 0c15.168-0.896 42.688-4.608 42.688-43.072s-41.024-41.344-48.448-41.472c-7.488-0.128-69.888 0-69.888 0s-23.68 3.008-23.68-21.504c0-31.808 30.72-61.44 48.256-62.784zM503.936 389.696c0-27.776 12.352-45.312 36.48-45.312 27.008 0 55.488 34.368 62.016 76.672l10.304 69.312c-5.888 1.536-13.888 2.944-22.656 2.944-48.192 0-86.144-47.424-86.144-103.616zM598.080-26.752v192.64c-16.896-2.304-34.752-3.264-54.72-3.264-121.216 0-227.84 86.848-227.84 230.016 0 148.928 108.8 278.144 273.152 278.144 121.152 0 209.472-77.632 220.096-188.288 11.008 1.728 22.336 2.688 33.792 2.688 6.656 0 13.184-0.32 19.712-0.96 0 171.072 0 322.432 0 336.96 0 34.688-43.392 34.688-43.392 34.688h-624.832c0 34.688 17.344 43.392 17.344 43.392s642.24 0 668.224 0c26.048 0 26.048-26.048 26.048-26.048s0-197.12 0-397.568c15.232-4.672 29.76-11.072 43.392-18.88 0 227.072 0 455.616 0 468.544 0 25.984-26.048 34.688-26.048 34.688s-659.584 0-728.96 0c-69.44 0-78.080-104.128-78.080-104.128s0-11.84 0-32.512c6.72 0.064 13.888 0.064 20.8 0.064 16 0 27.328-0.192 34.752-0.576 67.84-4.032 91.904-51.712 91.904-95.040 0-53.824-40.832-92.224-99.392-93.504-4.352-0.064-24.448-0.064-42.56-0.064l-0.128-20.16c5.12 0 10.304 0.064 15.424 0.064 16 0 27.328-0.192 34.752-0.576 67.84-3.84 91.968-51.648 91.968-95.040 0-60.032-49.984-92.48-99.456-93.44-4.16-0.128-24.32-0.128-42.432-0.128l-0.256-23.168c5.12 0.064 10.368 0.064 15.424 0.064 16 0 27.328-0.192 34.688-0.64 67.904-3.52 92.032-51.328 92.032-94.848 0-60.928-50.368-93.184-100.096-93.504-3.072-0.064-23.744-0.064-41.856-0.064l-0.192-20.608c5.12 0.064 10.368 0.064 15.488 0.064 16 0 27.328-0.192 34.752-0.576 67.776-3.584 91.968-51.456 91.968-95.040 0-62.784-51.52-92.48-99.456-93.504-4.096-0.064-24.256-0.064-42.24-0.064l-0.768-53.888c7.488-12.992 20.928-13.184 20.928-13.184s263.040 0 463.616 0c-4.864 11.456-7.552 24.064-7.552 37.248zM581.312 626.24c-112.448 0-209.536-86.912-209.536-227.072 0-122.624 77.376-191.232 186.176-191.232 14.848 0 30.208 1.344 45.12 3.84 4.864 14.656 13.248 28.032 24.768 38.912v19.84c0 9.344 0.704 18.56 1.792 27.648-11.712 9.344-19.392 23.68-21.312 43.456h-1.472c-23.36-36.544-55.488-56.256-94.912-56.256-46.72 0-81.728 35.84-81.728 95.68 0 89.792 66.432 170.048 171.584 170.048 32.128 0 68.608-8 86.848-17.472l-21.888-135.808c-0.32-1.792-0.576-3.584-0.832-5.312 22.336 32.256 53.312 58.112 89.472 74.304-3.712 90.944-64.512 159.424-174.080 159.424zM991.104-56.512h-297.216c-16.448 0-29.76 13.312-29.76 29.76v208c0 16.448 13.312 29.76 29.76 29.76v59.456c0 82.112 66.496 148.608 148.608 148.608 82.048 0 148.544-66.496 148.544-148.608v-59.456c16.448 0 29.76-13.312 29.76-29.76v-208c0.064-16.448-13.248-29.76-29.696-29.76zM931.712 270.464c0 49.28-39.936 89.216-89.152 89.216-49.344 0-89.216-39.936-89.216-89.216v-59.456h178.304v59.456z" />
<glyph unicode="&#xe118;" glyph-name="child-relation" d="M934.592 771.84c0-52.949-45.789-95.872-102.272-95.872s-102.272 42.923-102.272 95.872c0 52.949 45.789 95.872 102.272 95.872s102.272-42.923 102.272-95.872zM286.912 771.84c0-52.949-45.789-95.872-102.272-95.872s-102.272 42.923-102.272 95.872c0 52.949 45.789 95.872 102.272 95.872s102.272-42.923 102.272-95.872zM264.32 364.096v271.68l-77.504-64.96c0 0-75.776 78.336-106.048 88.384-30.272 10.112-80.768-39.232-80.768-39.232v-255.872c0-45.568 57.984-38.144 57.984-38.144l51.776-377.664h159.040c0 0 17.536 294.4 44.032 359.808-38.592 17.088-48.512 56-48.512 56zM1023.872 353.664c0 0 0 222.208 0 257.536s-80.896 50.496-80.896 50.496l-108.48-90.88c0 0-47.552 49.152-82.368 74.56v-281.28c0 0-9.088-36.224-44.224-54.208l49.536-361.6h159.040c0 0 22.208 372.544 54.336 372.544 58.048 0.064 53.056 32.832 53.056 32.832zM615.744 840.768c0-59.028-51.061-106.88-114.048-106.88s-114.048 47.852-114.048 106.88c0 59.028 51.061 106.88 114.048 106.88s114.048-47.852 114.048-106.88zM360.512 361.344l8.96-65.344 55.68 52.864c-15.936 18.688-24.704 41.792-24.704 65.856 0 57.728 49.6 104.704 110.528 104.704s110.592-46.976 110.592-104.704c0-25.216-9.408-49.088-26.624-68.096l39.552-41.088c6.656 30.592 13.888 50.112 21.632 50.112 64.704 0 59.136 36.544 59.136 36.544s0 247.808 0 287.168-90.112 56.32-90.112 56.32l-121.024-101.312c0 0-84.48 87.296-118.272 98.56-33.728 11.264-84.416-42.24-84.416-42.24l-5.568-295.488c0-50.752 64.64-33.856 64.64-33.856zM586.368 414.72c0-38.421-33.725-69.568-75.328-69.568s-75.328 31.147-75.328 69.568c0 38.421 33.725 69.568 75.328 69.568s75.328-31.147 75.328-69.568zM435.648 242.752v-49.984h142.848v55.232l52.864-55.232c0 0 19.52-27.712 39.488-5.312 0 0 13.76 13.12 0 29.824l-107.968 111.936h-107.456l-115.584-109.76c0 0-16.192-20.608 0-32.448 0 0 14.272-14.912 32.32-2.176l63.488 57.92zM436.864 164.096l58.048-56.192-42.304-40.384 44.672-47.808c0 0 12.864-20.224 0-33.344 0 0-16.64-20.608-35.2-3.968l-74.688 80.768c0 0-24.768 28.096 0 53.12l49.472 47.808zM582.336 164.096l-57.984-56.192 42.304-40.384-44.672-47.808c0 0-12.864-20.224 0-33.344 0 0 16.64-20.608 35.2-3.968l74.688 80.768c0 0 24.704 28.096 0 53.12l-49.536 47.808z" />
<glyph unicode="&#xe119;" glyph-name="care" d="M68.352 647.296c0 0 35.264-12.352 45.824-24.704 10.624-12.288 40.512-257.344 40.512-257.344s-28.16-27.328-32.576-36.096-7.936-18.496-5.312-26.432c2.624-7.936 71.36-124.288 80.192-125.184s19.392 10.56 13.248 19.392c-6.144 8.896-71.36 100.48-71.36 108.032s-2.688 7.040 3.072 14.592c5.696 7.488 23.808 26.88 23.808 26.88s198.336-104.896 197.888-249.024l-4.864-161.408h-127.808l-29.952 104.448c0 0-167.488 166.656-171.904 182.016-4.416 15.424-1.344 4.992-7.040 31.296-3.52 16.32 33.92 347.712 46.272 393.536zM955.712 647.296c0 0-35.264-12.352-45.824-24.704-10.624-12.288-40.576-257.344-40.576-257.344s28.16-27.328 32.576-36.096c4.416-8.832 8-18.496 5.312-26.432-2.624-7.936-71.36-124.288-80.256-125.184-8.768-0.896-19.392 10.56-13.184 19.392 6.208 8.896 71.424 100.48 71.424 108.032s2.624 7.040-3.136 14.592c-5.696 7.488-23.808 26.88-23.808 26.88s-198.336-104.896-197.888-249.024l4.928-161.408h127.808l29.952 104.448c0 0 167.488 166.656 171.904 182.016 4.416 15.424 1.344 4.992 7.040 31.296 3.52 16.32-33.92 347.712-46.272 393.536zM663.424 821.696c0-76.348-65.99-138.24-147.392-138.24s-147.392 61.892-147.392 138.24c0 76.348 65.99 138.24 147.392 138.24s147.392-61.892 147.392-138.24zM761.728 392.896c0 90.368 0 214.080 0 243.008 0 46.912-107.328 67.072-107.328 67.072l-144.192-120.64c0 0-100.608 103.872-140.864 117.312-40.256 13.376-101.76-50.368-101.76-50.368v-256.448h494.144z" />
<glyph unicode="&#xe11a;" glyph-name="birth" d="M676.288 819.904c0-77.373-67.967-140.096-151.808-140.096s-151.808 62.723-151.808 140.096c0 77.373 67.967 140.096 151.808 140.096s151.808-62.723 151.808-140.096zM372.672 473.536v-100.672h287.744v111.168l106.496-111.168c0 0 39.232-55.936 79.488-10.816 0 0 27.84 26.56 0 60.096l-217.408 225.536h-216.512l-232.768-221.056c0 0-32.576-41.536 0-65.408 0 0 28.736-30.080 65.152-4.416l127.808 116.736zM375.104 315.2l116.864-113.216-85.248-81.344 90.048-96.448c0 0 25.856-40.64 0-67.2 0 0-33.536-41.536-70.912-7.936l-150.4 162.688c0 0-49.856 56.64 0 107.008l99.648 96.448zM668.16 315.2l-116.928-113.216 85.312-81.344-90.112-96.448c0 0-25.856-40.64 0-67.2 0 0 33.6-41.536 70.912-7.936l150.464 162.688c0 0 49.792 56.64 0 107.008l-99.648 96.448z" />
<glyph unicode="&#xe11b;" glyph-name="undo-swiss" d="M637.568-64l-173.248 159.36c-5.888 6.208-2.624 30.336-2.624 30.336s228.736 188.8 241.344 201.92c12.544 13.248 47.872 0 47.872 0v-37.888h273.088v316.544h-353.728v353.728h-316.544v-353.728h-353.728v-316.48h353.728v-353.792h283.84zM522.56 104.384l169.088-146.24c0 0 11.456-11.392 22.784 0v68.544c0 0 27.456 9.152 77.696 9.152s150.72-13.696 187.392-77.696c0 0 9.152-4.544 9.152 9.216 0 13.696-41.152 228.416-274.176 228.416l-0.384 59.008c0 0-6.976 10.048-16.704 0.384-9.728-9.728-174.784-141.632-174.784-141.632s-4.608-4.608-0.064-9.152z" />
<glyph unicode="&#xe11c;" glyph-name="undo-citizen" d="M934.592 755.968c0-52.949-45.789-95.872-102.272-95.872s-102.272 42.923-102.272 95.872c0 52.949 45.789 95.872 102.272 95.872s102.272-42.923 102.272-95.872zM286.912 755.968c0-52.949-45.789-95.872-102.272-95.872s-102.272 42.923-102.272 95.872c0 52.949 45.789 95.872 102.272 95.872s102.272-42.923 102.272-95.872zM615.744 840.768c0-59.028-51.061-106.88-114.048-106.88s-114.048 47.852-114.048 106.88c0 59.028 51.061 106.88 114.048 106.88s114.048-47.852 114.048-106.88zM243.2 97.344c-5.504 5.696-2.496 27.84-2.496 27.84s19.136 15.488 46.208 37.504c6.784 60.096 15.168 116.224 24.768 142.592-44.736 14.976-55.808 58.816-55.808 58.816v264.576l-69.056-57.856c0 0-75.776 78.336-106.048 88.384-30.272 10.112-80.768-39.232-80.768-39.232v-255.872c0-45.568 57.984-38.144 57.984-38.144l51.776-377.664h159.040c0 0 3.136 52.48 8.704 118.016l-34.304 31.040zM297.728 101.568l158.4-137.024c0 0 10.688-10.752 21.376 0v64.192c0 0 25.664 8.576 72.768 8.576s141.312-12.8 175.552-72.768c0 0 8.576-4.288 8.576 8.576 0 12.8-38.528 214.080-256.896 214.080l-0.384 55.296c0 0-6.592 9.408-15.68 0.32-9.152-9.088-163.776-132.672-163.776-132.672s-4.224-4.352 0.064-8.576zM360.512 361.344l17.088-124.928c44.736 36.608 84.352 69.312 89.216 74.304 11.84 12.096 44.864 0 44.864 0v-89.664c41.664 0 76.928-5.888 107.072-15.616 9.984 81.472 22.72 150.272 37.312 150.272 64.704 0 64 36.544 64 36.544s0 247.808 0 287.168-94.976 56.32-94.976 56.32l-120.96-101.376c0 0-84.416 87.296-118.272 98.56-33.728 11.264-81.472-42.24-81.472-42.24v-295.488c-0.064-50.752 56.128-33.856 56.128-33.856zM1023.872 353.664c0 0 0 222.208 0 257.536s-80.896 50.496-80.896 50.496l-108.48-90.88c0 0-39.488 49.6-74.368 74.944v-281.6c0 0-17.472-35.968-52.224-53.952l25.216-183.872c51.776-67.264 57.728-150.272 58.432-177.984h124.992c0 0 22.208 372.544 54.336 372.544 57.984 0 52.992 32.768 52.992 32.768z" />
<glyph unicode="&#xe11d;" glyph-name="renew-permit" d="M431.552 228.16c0 0 40.192-32.192 48.256-48.256 0 0 48.192 56.256 72.32 64.32 0 0-8 24.128 0 40.192 0 0-8 8.064-24.128-8-8-8.064-40.192-48.256-40.192-48.256s-24.128 16.064-24.128 32.128c0.064 0-24.064-16.064-32.128-32.128zM582.912 370.752l159.296-137.792c0 0 10.816-10.752 21.568 0v64.64c0 0 25.792 8.576 73.216 8.576s142.080-12.928 176.576-73.216c0 0 8.64-4.288 8.64 8.64s-38.784 215.296-258.368 215.296l-0.384 55.616c0 0-6.656 9.472-15.808 0.384-9.152-9.216-164.736-133.568-164.736-133.568s-4.288-4.288 0-8.576zM569.024 186.368c-17.6-23.424-45.568-38.656-77.12-38.656-53.312 0-96.512 43.2-96.512 96.512s43.2 96.512 96.512 96.512c50.688 0 92.096-39.040 96.128-88.704 0.256 0.128 0.384 0.256 0.384 0.256 12.992-22.72 29.888-39.488 48.576-51.904l24.192 69.44-102.72 90.432c-4.992 4.928-2.24 24.128-2.24 24.128s190.144 149.952 201.024 160.768l144.832 414.848h-633.344l-267.392-852.416h595.072c-15.104 28.672-23.168 57.024-27.392 78.784zM339.072 895.68h442.368l-14.208-48.256h-442.304l14.144 48.256zM298.88 775.040h442.304l-14.144-48.256h-442.304l14.144 48.256zM266.688 654.4h442.368l-14.208-48.256h-442.304l14.144 48.256zM218.496 525.696h442.304l-14.144-48.256h-442.368l14.208 48.256zM1020.736 82.048l-159.296 137.792c0 0-10.752 10.752-21.504 0v-64.64c0 0-25.856-8.64-73.216-8.64s-142.144 12.928-176.64 73.28c0 0-8.576 4.288-8.576-8.64s38.72-215.296 258.368-215.296l0.32-55.616c0 0 6.656-9.472 15.808-0.32s164.672 133.504 164.672 133.504 4.416 4.288 0.064 8.576z" />
<glyph unicode="&#xe11e;" glyph-name="change-residence-permit" d="M615.232 132.48l222.016 317.12 135.68-94.976-222.080-317.12-135.616 94.976zM861.12 386.752l-14.848 10.432-178.688-255.168 14.848-10.432 178.688 255.168zM890.88 365.952l-14.848 10.432-178.688-255.232 14.848-10.368 178.688 255.168zM920.64 345.152l-14.912 10.432-178.624-255.232 14.848-10.368 178.688 255.168zM879.936 509.632c11.648 16.64 34.496 20.8 51.008 9.216l74.816-52.352c16.512-11.584 20.416-34.496 8.832-51.136l-32.384-46.208-134.656 94.336 32.384 46.144zM609.024 115.968l128.448-89.92-89.664-50.88-55.872 39.104 17.088 101.696zM630.656-33.984l-51.904-30.016 10.432 59.072 41.472-29.056zM268.736 960l-265.984-848h600l296 848h-630.016zM490.752 152c-53.056 0-96 43.008-96 96s42.944 96 96 96c52.992 0 96-43.008 96-96s-43.008-96-96-96zM644.096 480.192h-440l14.656 47.808h440l-14.656-47.808zM692.096 608.192h-440l14.656 47.808h440l-14.656-47.808zM723.904 728h-440.064l14.912 48h440l-14.848-48zM323.264 848l15.488 48h440l-15.424-48h-440.064zM430.72 232c0 0 40-32 48-48 0 0 48 56 72 64 0 0-8 24 0 40 0 0-8 8-24-8-8-8-40-48-40-48s-24 16-24 32c0 0-24-16-32-32z" />
<glyph unicode="&#xe11f;" glyph-name="paper-lock" d="M983.552-57.216h-404.736c-22.4 0-40.512 18.048-40.512 40.448v283.328c0 22.4 18.112 40.512 40.512 40.512v80.896c0 111.744 90.624 202.368 202.368 202.368s202.368-90.624 202.368-202.368v-80.96c22.4 0 40.448-18.112 40.448-40.512v-283.328c0-22.272-18.048-40.384-40.448-40.384zM902.656 387.968c0 67.008-54.464 121.408-121.408 121.408-67.072 0-121.408-54.464-121.408-121.408v-80.96h242.88v80.96zM458.176 259.904c0 0-23.872-15.936-31.872-31.872 0 0 39.808-31.872 47.808-47.808 0 0 15.36 17.92 33.024 34.88v43.712c-11.584-13.952-25.024-30.72-25.024-30.72s-23.936 15.872-23.936 31.808zM486.080 148.288c-52.8 0-95.616 42.816-95.616 95.616s42.816 95.68 95.616 95.68c16.896 0 32.704-4.416 46.528-12.16 4.544 3.136 9.6 5.632 14.976 7.296v66.56c0 25.92 4.736 50.688 13.056 73.792h-359.488l14.016 47.808h369.472c23.36 34.944 56.512 62.784 95.488 79.68h-431.168l14.016 47.808h438.272l-13.12-44.672c24.512 9.408 51.008 14.848 78.784 14.848 3.136 0 6.208-0.384 9.28-0.512l116.288 333.12h-627.52l-264.96-844.672h507.136v42.24c-6.784-1.536-13.824-2.432-21.056-2.432zM334.656 889.408h438.272l-14.016-47.808h-438.272l14.016 47.808zM294.848 769.856h438.272l-14.080-47.808h-438.208l14.016 47.808z" />
<glyph unicode="&#xe120;" glyph-name="data-lock" d="M796.096 644.16c9.472-0.512 18.496-1.408 27.136-2.624 49.856 32.704 79.040 72.384 79.040 115.072 0.064 112.384-201.408 203.392-449.92 203.392s-449.92-91.008-449.92-203.328c0-112.256 201.408-203.328 449.92-203.328 46.080 0 90.496 3.136 132.352 8.96 0.512 0.576 0.832 0.896 0.832 0.896s64.832 89.024 210.56 80.96zM571.712 494.528c-23.936-1.152-83.712-1.792-110.848-1.792-407.488 0-458.432 138.432-458.432 138.432v-138.432c0 0 50.944-138.432 458.432-138.432 14.464 0 62.656 0.192 76.096 0.576 0.576 10.88 1.216 21.056 1.856 30.144 3.392 42.816 17.408 80.128 32.896 109.504zM460.864 293.76c-407.488 0-458.432 138.432-458.432 138.432v-138.432c0 0 50.944-138.432 458.432-138.432 12.48 0 24.64 0.128 36.416 0.384 0.576 44.096 1.408 93.696 2.88 138.496-12.672-0.256-25.792-0.448-39.296-0.448zM496.704 86.464c-11.648-0.192-23.488-0.384-35.84-0.384-407.488 0-458.432 138.432-458.432 138.432v-138.432c0 0 50.944-138.432 458.432-138.432 12.16 0 24.064 0.128 35.648 0.384v80.64c0-0.064 0 22.976 0.192 57.792zM796.096 644.16c-145.728 8.064-210.56-81.024-210.56-81.024s-0.256-0.32-0.768-0.832c97.984 13.568 181.696 41.92 238.528 79.296-8.64 1.088-17.664 2.048-27.2 2.56zM981.824-64h-396.992c-21.952 0-39.744 17.728-39.744 39.68v277.952c0 21.952 17.792 39.68 39.744 39.68v79.424c0 109.632 88.896 198.528 198.528 198.528 109.696 0 198.528-88.832 198.528-198.528v-79.424c22.016 0 39.744-17.728 39.744-39.68v-277.952c-0.064-21.952-17.792-39.68-39.808-39.68zM902.464 372.736c0 65.728-53.376 119.104-119.104 119.104s-119.104-53.312-119.104-119.104v-79.424h238.272v79.424z" />
<glyph unicode="&#xe121;" glyph-name="change-sex" d="M600.256 144.32l229.76 328.192 140.416-98.304-229.824-328.192-140.352 98.304zM854.72 407.488l-15.424 10.752-184.96-264.128 15.36-10.816 185.024 264.192zM885.504 385.92l-15.36 10.752-184.96-264.128 15.36-10.816 184.96 264.192zM916.288 364.352l-15.424 10.816-184.96-264.192 15.36-10.752 185.024 264.128zM874.176 534.656c12.032 17.28 35.712 21.504 52.8 9.536l77.44-54.208c17.088-11.968 21.12-35.648 9.088-52.928l-33.408-47.808-139.392 97.536 33.472 47.872zM593.728 127.104l132.992-93.056-92.864-52.608-57.792 40.512 17.664 105.152zM616.192-28.032l-53.76-31.104 10.816 61.184 42.944-30.080zM436.288 575.104c-26.24-6.912-49.408-23.104-64.832-46.272-1.344-2.048-2.496-4.16-3.648-6.208 6.656-16.64 10.432-34.688 10.432-53.632 0-19.904-4.032-38.848-11.328-56.128 8.512-15.552 20.672-28.864 35.84-38.912 9.792-6.528 20.48-11.328 31.616-14.464 17.92 32.768 28.096 70.144 28.096 109.44 0 38.336-9.472 74.432-26.176 106.176zM275.136 243.456c5.888 1.152 11.712 2.432 17.408 4.032-27.776 21.76-50.496 47.808-67.648 76.736-76.224 4.224-137.088 67.392-137.088 144.768 0 78.144 62.144 141.888 139.648 144.896 1.536 2.432 3.072 4.928 4.672 7.424 17.664 26.624 39.488 49.408 64.192 68.096-20.096 5.76-41.344 8.96-63.296 8.96-126.528 0-229.44-102.912-229.44-229.44 0-110.4 79.808-205.504 187.328-225.536v-82.368h-140.8v-84.224h140.8v-140.8h84.288v140.8h140.8v84.224h-140.8v82.432zM805.12 894.208v0l-13.312 65.792-211.776-42.752 17.28-85.184 66.368 13.44-105.408-158.848c-29.696 12.672-61.056 19.136-93.568 19.136-80.256 0-154.688-39.936-199.040-106.688-72.832-109.696-42.816-258.176 66.816-331.008 39.296-26.048 84.928-39.872 131.904-39.872 80.32 0 154.752 39.936 199.168 106.752 63.616 95.872 49.088 224.512-32.896 303.68l105.408 158.784 13.376-66.432 85.184 17.216-29.504 145.984zM613.504 497.152c8-39.808 0.064-80.32-22.4-114.112-28.16-42.56-75.584-67.968-126.72-67.968-29.888 0-58.88 8.832-83.904 25.344-33.792 22.464-56.768 56.704-64.832 96.512s-0.128 80.32 22.336 114.112c28.224 42.56 75.584 67.968 126.72 67.968 29.888 0 58.88-8.768 83.84-25.344 33.856-22.528 56.896-56.768 64.96-96.512z" />
<glyph unicode="&#xe122;" glyph-name="change-religion" d="M469.504 235.008l154.24 217.856c0 160.832 0 314.176 0 327.616 0 28.992-36.224 28.992-36.224 28.992h-522.24c0 28.992 14.528 36.224 14.528 36.224s536.704 0 558.464 0 21.76-21.76 21.76-21.76 0-156.736 0-319.936l36.224 51.264c0 160.384 0 302.912 0 312.192 0 21.824-21.76 29.056-21.76 29.056s-551.168 0-609.216 0-65.28-87.040-65.28-87.040 0-710.784 0-739.84c0-29.056 21.76-29.056 21.76-29.056s255.936 0 426.048 0l21.696 194.432zM282.88 171.2v340.928h-145.088v65.28h145.088v116.032h65.28v-116.032h145.088v-65.28h-145.088v-340.928h-65.28zM528.768 238.272l271.488 384.576 164.544-116.16-271.552-384.576-164.48 116.16zM828.992 546.304l-17.984 12.672-218.56-309.504 17.984-12.736 218.56 309.568zM865.088 520.832l-17.984 12.736-218.624-309.568 17.984-12.672 218.624 309.504zM901.12 495.36l-18.048 12.736-218.496-309.568 17.984-12.736 218.56 309.568zM852.416 695.552c14.272 20.224 42.112 25.216 62.144 11.008l90.688-64.064c20.032-14.144 24.768-41.984 10.432-62.208l-39.552-56.064-163.264 115.328 39.552 56zM521.088 218.112l155.776-110.080-109.312-61.376-67.712 47.936 21.248 123.52zM546.752 35.712l-63.36-36.224 12.992 71.808 50.368-35.584z" />
<glyph unicode="&#xe123;" glyph-name="change-occupation" d="M293.44 394.24l-90.56-458.24h282.432l-90.56 458.24zM40.064 457.6l25.344 392.64 88.704 101.376-12.672-88.704 126.656-208.96zM648.064 457.6l-25.344 392.64-88.64 101.376 12.672-88.704-126.656-208.96zM179.456 898.304c0 0 0 61.696 54.848 61.696s164.608 0 219.52 0c54.848 0 54.848-54.848 54.848-54.848s13.76-54.848-54.848-54.848-164.608 0-219.52 0-54.848 48-54.848 48zM242.752 558.912l50.688 50.688h101.312l50.688-50.688-50.688-132.992h-101.312zM565.696 194.432l228.672 326.592 139.776-97.856-228.672-326.656-139.776 97.92zM819.008 456.32l-15.36 10.688-184.064-262.848 15.296-10.752 184.128 262.912zM849.536 434.88l-15.296 10.688-184-262.848 15.232-10.752 184.064 262.912zM880.256 413.44l-15.36 10.752-184.064-262.912 15.296-10.688 184.128 262.848zM838.336 582.848c12.032 17.216 35.584 21.44 52.544 9.536l77.056-53.952c17.024-11.904 21.056-35.456 9.088-52.608l-33.344-47.616-138.688 97.152 33.344 47.488zM559.296 177.344l132.288-92.672-92.352-52.352-57.536 40.32 17.6 104.704zM581.632 22.912l-53.504-30.912 10.752 60.864 42.752-29.952z" />
<glyph unicode="&#xe124;" glyph-name="change-nationality" d="M229.184 463.296c-43.136-59.904-54.848-27.008-43.84-60.608s-18.304-59.2 21.184-32.96c39.488 26.368 30.72 62.912 63.616 35.136s67.2 6.592 48.96-38.016c-18.304-44.608 8.768-109.568 32.896-32.832s-32.896 35.776-9.472 91.328c23.36 55.552 59.2 67.968 16.832 77.44-57.856-29.248-81.984-65.024-105.344-46.784s-23.36 6.656-24.832 7.296zM446.336 387.84c-8-51.2-3.648-68.736-29.952-65.088s-48.192 13.12-29.248-24.128c19.008-37.248 65.088-5.76 40.192-43.904-24.832-38.016-5.888-44.48-59.2-63.488-53.376-19.008-37.312-27.776-32.192-28.48 35.84 1.344 155.712 29.888 167.36 166.656-25.536 101.568-56.256 56.96-56.96 58.432zM202.112 234.496c11.712 20.48 13.888 30.72 28.544 20.48 14.592-10.24 3.648-6.528 30.656-17.472s20.416 19.008 36.544-2.24c16.064-21.12-4.352-19.008-10.24-38.016s-44.608-21.12-44.608-12.352-30.656-3.648-40.896 49.6zM119.232 738.88c-6.976 0-11.968-0.448-14.528-1.216v-46.592c3.072-0.704 6.592-0.96 11.968-0.96 18.944 0 30.656 9.6 30.656 25.472-0.064 14.656-10.112 23.296-28.096 23.296zM258.176 707.776c-2.816 9.344-5.632 21.056-7.936 30.4h-0.512c-2.304-9.344-4.672-21.248-7.232-30.4l-9.344-33.472h34.816l-9.792 33.472zM460.608 213.504c-32.384-35.52-78.976-57.856-130.944-57.856-97.92 0-177.28 78.976-177.28 176.512v0.064c0 97.472 79.424 176.448 177.28 176.448s177.216-79.040 177.216-176.576c0-23.232-4.672-45.504-12.928-65.856l138.88 196.096c0 164.032 0 321.152 0 334.784 0 29.44-36.8 29.44-36.8 29.44h-529.92c0 29.44 14.72 36.8 14.72 36.8s544.576 0 566.656 0 22.080-22.080 22.080-22.080 0-160.576 0-327.040l36.8 51.968c0 163.776 0 309.76 0 319.232 0 22.080-22.080 29.44-22.080 29.44s-559.296 0-618.24 0c-58.688 0-66.048-88.256-66.048-88.256s0-721.216 0-750.592c0-29.504 22.080-29.504 22.080-29.504s247.552 0 419.904 0l18.624 166.976zM510.336 673.152c-26.24 9.344-43.52 23.872-43.52 46.784 0 26.88 22.656 47.296 59.712 47.296 17.984 0 30.848-3.52 40.256-8l-8-28.544c-6.144 3.072-17.6 7.488-32.832 7.488-15.424 0-22.912-7.232-22.912-15.168 0-10.048 8.64-14.528 29.248-22.272 27.904-10.304 40.768-24.832 40.768-47.040 0-26.432-20.096-48.896-63.424-48.896-17.984 0-35.776 4.928-44.672 9.792l7.232 29.248c9.344-4.928 24.32-9.792 39.552-9.792 16.384 0 25.024 6.72 25.024 17.088-0.064 9.856-7.488 15.488-26.432 22.016zM384 673.152c-26.24 9.344-43.52 23.872-43.52 46.784 0 26.88 22.656 47.296 59.712 47.296 17.984 0 30.848-3.52 40.192-8l-7.936-28.544c-6.080 3.072-17.6 7.488-32.768 7.488-15.488 0-22.912-7.232-22.912-15.168 0-10.048 8.64-14.528 29.248-22.272 27.84-10.24 40.704-24.768 40.704-47.040 0-26.432-20.096-48.896-63.424-48.896-17.984 0-35.776 4.928-44.672 9.792l7.296 29.248c9.344-4.928 24.32-9.792 39.552-9.792 16.384 0 25.024 6.72 25.024 17.088-0.064 9.856-7.552 15.488-26.496 22.016zM274.752 764.864l49.152-157.696h-38.592l-12.16 40.512h-45.184l-11.2-40.512h-36.736l47.936 157.696h46.784zM104.704 663.808v-56.64h-35.328v155.584c11.008 1.856 26.432 3.264 48.192 3.264 22.016 0 37.696-4.16 48.192-12.608 10.304-8 16.832-21.056 16.832-36.48s-4.928-28.8-14.528-37.44c-12.16-11.2-30.208-16.64-51.264-16.64-4.608 0-8.768 0.256-12.096 0.96zM521.536 223.36l275.52 390.208 166.912-117.888-275.52-390.208-166.912 117.888zM826.24 536l-18.304 12.928-221.824-314.048 18.304-12.992 221.824 314.112zM862.784 510.144l-18.304 12.928-221.76-314.048 18.304-12.864 221.76 313.984zM899.456 484.288l-18.368 12.928-221.696-314.112 18.24-12.864 221.824 314.048zM849.984 687.424c14.464 20.48 42.688 25.472 62.976 11.136l92.096-64.96c20.288-14.4 25.088-42.624 10.56-63.104l-40.128-56.896-165.696 116.992 40.192 56.832zM513.728 203.008l158.080-111.616-110.912-62.4-68.736 48.64 21.568 125.376zM539.776 17.856l-64.256-36.736 13.184 72.896 51.072-36.16z" />
<glyph unicode="&#xe125;" glyph-name="change-name" d="M408.768 299.264l336.448 480.448 205.632-144-336.512-480.512-205.568 144.064zM781.376 684.544l-22.592 15.808-270.784-386.752 22.528-15.808 270.848 386.752zM826.432 652.928l-22.592 15.808-270.72-386.688 22.528-15.808 270.784 386.688zM871.488 621.376l-22.592 15.808-270.72-386.752 22.528-15.808 270.784 386.752zM809.792 870.656c17.664 25.216 52.288 31.488 77.376 13.952l113.344-79.36c25.088-17.536 30.976-52.224 13.376-77.44l-49.088-70.080-204.032 142.912 49.024 70.016zM399.232 274.048l194.688-136.32-135.936-76.992-84.672 59.264 25.92 154.048zM432.128 46.848l-78.72-45.504 15.808 89.536 62.912-44.032zM326.464 784c0-51.959-44.9-94.080-100.288-94.080s-100.288 42.121-100.288 94.080c0 51.959 44.9 94.080 100.288 94.080s100.288-42.121 100.288-94.080zM394.496 491.072c0 61.504 0 145.664 0 165.376 0 31.936-73.024 45.632-73.024 45.632l-98.176-82.112c0 0-68.48 70.72-95.872 79.872s-69.888-35.712-69.888-35.712v-173.056h336.96zM0 368.576v90.432h468.48l-57.536-90.432z" />
<glyph unicode="&#xe126;" glyph-name="message-center" d="M621.312 563.072v287.616h-57.472v57.536h-562.816l-1.024-776.576h51.84v-57.536h270.4v-86.336h701.76v575.296h-402.688zM891.712 494.080l-218.56-172.608-218.624 172.608h437.184zM322.176 194.88h-264.64v655.808h448.704v-287.616h-184.064v-368.192zM960.768 62.592h-575.36v379.648l287.68-212.864 287.616 212.864v-379.648zM103.552 770.176h368.192v-46.080h-368.192v46.080zM103.552 632.128h368.192v-46.080h-368.192v46.080zM103.552 494.080h218.624v-46.080h-218.624v46.080zM103.552 355.968h218.624v-46.016h-218.624v46.016z" />
<glyph unicode="&#xe127;" glyph-name="workflows" d="M257.264 960c142.088 0 257.312-115.096 257.312-257.040s-115.224-257.048-257.312-257.048c-142.080 0-257.264 115.104-257.264 257.048s115.184 257.040 257.264 257.040v0zM257.264 840.2c-75.848 0-137.328-61.464-137.328-137.24s61.48-137.208 137.328-137.208 137.376 61.424 137.376 137.208-61.52 137.24-137.376 137.24zM766.736 960c142.064 0 257.264-115.096 257.264-257.040s-115.2-257.048-257.264-257.048c-142.088 0-257.28 115.104-257.28 257.048s115.192 257.040 257.28 257.040v0zM766.736 840.2c-75.848 0-137.344-61.464-137.344-137.24s61.496-137.208 137.344-137.208 137.328 61.432 137.328 137.208-61.48 137.24-137.328 137.24zM257.264 450.12c142.088 0 257.312-115.096 257.312-257.080 0-141.944-115.224-257.040-257.312-257.040-142.080 0-257.264 115.096-257.264 257.040 0 141.984 115.184 257.080 257.264 257.080v0zM257.264 330.288c-75.848 0-137.328-61.464-137.328-137.248 0-75.744 61.48-137.2 137.328-137.2s137.376 61.464 137.376 137.2c0 75.792-61.52 137.248-137.376 137.248zM766.736 450.12c142.064 0 257.264-115.096 257.264-257.080 0-141.944-115.2-257.040-257.264-257.040-142.088 0-257.28 115.096-257.28 257.040 0 141.984 115.192 257.080 257.28 257.080v0zM766.736 330.288c-75.848 0-137.344-61.464-137.344-137.248 0-75.744 61.496-137.2 137.344-137.2s137.328 61.464 137.328 137.2c0 75.792-61.48 137.248-137.328 137.248zM587.040 448.008c-30.288 18.944-55.96 44.536-75.024 74.736-19.096-30.2-44.784-55.8-75.056-74.736 30.272-18.96 55.96-44.56 75.056-74.752 19.064 30.2 44.736 55.8 75.024 74.752zM835.912 679.8l-71.944-71.96-71.968 71.96v47.456l54.744-54.728v107.544h34.816v-107.168l54.44 54.432zM752.568 121.144l-71.952 71.952 71.952 71.968h47.456l-54.728-54.752h107.536v-34.816h-107.152l54.432-54.432zM185.376 207.216l71.944 71.952 71.968-71.952v-47.448l-54.744 54.72v-107.536h-34.816v107.16l-54.44-54.44zM271.448 774.872l71.952-71.944-71.952-71.968h-47.456l54.728 54.736h-107.544v34.824h107.16l-54.432 54.44z" />
<glyph unicode="&#xe128;" glyph-name="web" d="M471.040 256.936c0-33.932-27.508-61.44-61.44-61.44s-61.44 27.508-61.44 61.44c0 33.932 27.508 61.44 61.44 61.44s61.44-27.508 61.44-61.44zM918.288 136.784c-5.048-6.576-10.24-13.032-15.592-19.352 5.912 5.808 11.12 12.32 15.592 19.352zM327.944 184.528c-17.104 19.296-27.568 44.592-27.568 72.408 0 6.264 0.648 12.368 1.656 18.344-52.48 29.688-96.536 63.048-132.96 96.304-37.664 34.384-69.28 70.112-95.736 104.76-31.176-40.016-53.456-76.624-67.832-103.064 18.84-128.704 85.608-241.784 181.504-320.728 40.304 31.528 89.032 74.76 140.936 131.976zM546.944 742.6c-69.936-7.232-136.192-24.056-198.512-50.608-106.84-45.528-186.864-113.704-244.28-178.584 26.48-35.664 58.696-72.76 97.528-107.984 36.768-33.36 76.16-62.144 118-86.52 19.712 28.552 52.608 47.296 89.92 47.296 17.72 0 34.4-4.32 49.192-11.808 53.336 81.088 107.544 180.176 156.184 299.568-36.504 14.552-63.296 48.192-68.032 88.64zM13.76 565.912c-8.912-37.832-13.76-77.232-13.76-117.776 0-1.008 0.072-1.992 0.080-3 13.2 20.424 29.168 42.92 47.896 66.256-12.952 18.944-24.296 37.256-34.216 54.52zM719.208 171.92c-80.912 0.152-153.432 9.512-218.224 25.264-19.504-29.8-53.12-49.504-91.384-49.504-17.68 0-34.32 4.288-49.096 11.752-0.48-0.528-0.96-1.088-1.44-1.608-50.504-55.8-97.904-98.672-138.152-130.896 82.656-57.272 182.92-90.928 291.088-90.928 99.344 0 192.024 28.376 270.504 77.376 5.512 25.744 9.928 51.392 13.368 76.952-38.352 10.984-68.040 42.296-76.664 81.592zM830.664 47.424c26.24 20.92 50.352 44.408 72.032 70.008-17.448-17.152-40.592-28.48-66.36-30.88-1.64-12.944-3.448-25.944-5.672-39.128zM957.512 195.856c-7.488-1.448-14.896-2.8-22.248-4.080-0.68-20.216-6.792-39.016-16.976-55 14.368 18.72 27.52 38.44 39.224 59.080zM1024 448.136c0 85.904-21.248 166.808-58.608 237.904-69.96 23.6-137.52 40.248-202.6 50.080-4.192-23.464-15.84-44.288-32.448-60 49.768-96.464 96.136-222.76 110.008-372.224 38.752-5.080 71.112-30.328 86.104-64.952 19.096 3.384 38.336 7.048 57.904 11.376 25.512 60.848 39.64 127.68 39.64 197.816zM800.592 301.84c-11.216 119.984-46.176 237.6-104.936 352.080-12.304-4.888-25.672-7.664-39.696-7.736-51.024-126.728-108.304-231.504-164.688-316.88 17.088-19.28 27.552-44.576 27.552-72.376 0-5.488-0.528-10.832-1.312-16.096 63.208-14.736 130.568-21.832 201.744-21.608 9.032 40.808 40.792 72.952 81.336 82.616zM614.488 856.688c12.632 5.104 26.408 7.984 40.872 7.984 10.784 0 21.168-1.624 31.008-4.536 5.96 20.536 11.752 41.48 17.296 62.944-55.968 22.64-116.872 35.56-180.656 36.92 22.712-22.376 55.432-57.104 91.48-103.312zM331.8 729.424c68.52 29.272 141.384 47.424 218.256 54.64 5.264 19.384 15.672 36.616 29.744 50.128-61.296 77.888-112.080 121.472-114.88 123.856-198.528-18.12-364.256-149.568-432.016-329.16 11.872-23.64 27.256-51.152 46.696-80.512 59.92 65.92 142.336 134.12 252.2 181.048zM887.464 195.488c0-33.932-27.508-61.44-61.44-61.44s-61.44 27.508-61.44 61.44c0 33.932 27.508 61.44 61.44 61.44s61.44-27.508 61.44-61.44zM762.296 777.688c55.296-8 112.24-20.76 170.8-38.336-48.72 70.336-114.584 127.888-191.536 166.608-5.824-22.232-11.88-43.936-18.136-65.176 19.528-15.6 33.616-37.712 38.872-63.096zM716.8 755.416c0-33.932-27.508-61.44-61.44-61.44s-61.44 27.508-61.44 61.44c0 33.932 27.508 61.44 61.44 61.44s61.44-27.508 61.44-61.44z" />
<glyph unicode="&#xe129;" glyph-name="village" d="M288 136h120v-200h-120v200zM788.032 703.984l-249.712-161.944-219.744 416.128-318.576-454.672v-567.496h128v254.768l-16.688-12.768-38.984 55.736 279.136 214.976 80.536-59.288v66.576h72v-125.888l122.8-96.376-39.464-55.736-28.304 19.344 0.968-1.832v-259.512h464v182.544z" />
<glyph unicode="&#xe12a;" glyph-name="tenants" d="M276.168 411.808l-274.168-214.416 28.464-36.832 57.536 45.272v-269.832h376v267.56l54.368-43.008 28.504 36.832-270.704 214.424zM344-16h-136v144h136v-144zM752.36 685.904l-274.176-214.416 26.368-36.832 55.448 45.28v-271.936h376v269.656l56.464-43 29.544 36.832-269.648 214.416zM816 256h-136v144h136v-144zM276.168 960l-274.168-214.424 28.464-36.832 57.536 45.288v-274.032h376v271.752l54.368-43 28.504 36.832-270.704 214.416zM344 528h-136v144h136v-144z" />
<glyph unicode="&#xe12b;" glyph-name="streets" d="M0-64h440l31.504 672h-194.32zM488 960h-65.624l-46.2-112h106.576zM584-64h440l-274.488 672h-197.008zM605.736 960h-69.736l5.248-112h110.24zM0 808h1024v-160h-1024v160zM72 656h48v-280h-48v280zM896 656h48v-280h-48v280z" />
<glyph unicode="&#xe12c;" glyph-name="sedex" d="M960 960h64v-1024h-64v1024zM832 765.336v-41.296c12.96-17.536 21.288-37.28 23.688-59.352l0.312 0.208v-514.512l-24-16.288v-3.432l128-194.664v1024l-128-194.664zM0 960h64v-1024h-64v1024zM192 765.336v-41.296c-12.96-17.536-21.288-37.28-23.688-59.352l-0.312 0.208v-514.512l24-16.288v-3.432l-128-194.664v1024l128-194.664zM232 281.936v-83.168c48-45.904 160.032-77.856 289.176-77.856 115.080 0 214.824 25.376 270.824 63.392v83.056c-56-38.064-155.664-63.496-270.824-63.496-129.296 0-241.176 32.080-289.176 78.072zM344 365.296c-48 13.688-88.728 32.672-112 54.976v-83.176c23.28-22.264 62.88-41.2 110.944-54.856-0.008 0.336 1.056 0.664 1.056 1.008v82.048zM679.968 277.16c45.48 11.072 84.424 26.72 112.032 45.472v83.056c-27.48-18.672-64-34.28-112-45.36v-77.080c0-2.088 0.4-4.12-0.032-6.088zM351.12 501.336c-51.904 13.824-94.512 33.696-119.12 57.272v-83.168c23.264-22.256 64-41.176 112-54.832v60.76c0 7.784 2.008 14.848 7.12 19.968zM680 481.352v-65.688c48 11.064 84.528 26.64 112 45.288v83.064c-28.496-19.368-69-35.44-116.392-46.576 3.176-4.576 4.392-10.104 4.392-16.088zM512.008 651.152c-46.904 0-88.008-38-88.008-84.904v-26.248c32-3.52 58.392-5.44 87.992-5.44s56.008 1.92 88.008 5.44v26.248c0 46.904-41.12 84.904-87.992 84.904zM512.008 707.752c78.168 0 143.992-63.32 143.992-141.504v-15.792c80 20.24 137.976 57.784 137.976 100.792 0 64.448-126.552 116.688-281.728 116.688-155.184 0-282.352-52.248-282.352-116.688 0-43.008 58.104-80.552 138.104-100.792v15.792c0 78.184 65.848 141.504 144.008 141.504z" />
<glyph unicode="&#xe12d;" glyph-name="user-administration" d="M721.384 710.664c0-137.84-119.168-249.568-266.16-249.568-146.864 0-266.072 111.728-266.072 249.568s119.208 249.736 266.072 249.736c146.992 0 266.16-111.888 266.16-249.736zM752.256-8h-177.192c-34.472 0-55.064 37.488-55.064 70.232v8.376c0 27.064 15.264 46.064 40 51.456v37.936h184v-40h8.816c24.904 64 79.936 98.824 143.416 98.824 0.424 0-0.224 1.744-0.224 1.744 0 72.264 0 130.984 0 154.656 0 84.728-192.28 121.144-192.28 121.144l-259.664-217.944c0 0-181.272 187.576-253.92 211.88-72.712 24.184-181.552-91.112-181.552-91.112l-8.592-463.192h798.4c-19.944 16-35.904 32-46.144 56zM1024 65.512c0 69.768-56.544 121.304-126.296 121.304-58.52 0-107.728-42.824-122.064-98.824h-63.64v40h-48v-40h-24v40h-48v-40h-16.936c-15.136 0-23.064-2.264-23.064-17.392v-8.376c0-15.128 7.928-38.232 23.064-38.232h200.112c13.712-56 63.36-90.208 122.528-90.208 69.752 0.008 126.296 61.984 126.296 131.728zM831.152 65.512c0 36.752 29.8 66.56 66.552 66.56s66.552-29.816 66.552-66.56-29.8-66.56-66.552-66.56-66.552 29.816-66.552 66.56z" />
<glyph unicode="&#xe12e;" glyph-name="schedulers" d="M168 376h128v-112h-128v112zM464 376v-112h52.824c15.424 40 35.176 77.448 67.176 107.784v4.216h-120zM168 576h128v-112h-128v112zM464 576h120v-112h-120v112zM160 960h112v-144h-112v144zM504 960h104v-144h-104v144zM168 176h128v-128h-128v128zM464 48h56.752c-14.376 32-22.36 72.96-22.36 112.824 0 5.024 0.128 7.176 0.376 15.176h-34.768v-128zM837.575 213.657c-12.951-12.928-21.575-25.856-37.575-38.793 0 41.095 0 97.136 0 129.136 0 16-40 16-40 0 0-56 0-108.736 0-160.169 0-8.256 10.343-12.775 16.688-13.559 4.608-1.952 12.425-1.543 17.049 3.056 20.128 20.103 42.048 40.192 62.201 60.288 12.903 12.937-5.376 32.953-18.361 20.041zM787.184-64c-128.36 0-232.816 104.184-232.816 232.24 0 128.048 104.456 232.24 232.816 232.24 128.376 0 232.816-104.192 232.816-232.24 0-128.056-104.44-232.24-232.816-232.24zM787.184 348.872c-99.84 0-181.080-81.032-181.080-180.632s81.232-180.632 181.080-180.632 181.080 81.032 181.080 180.632-81.232 180.632-181.080 180.632zM769.264 455.968l1.8 416.032h-123.064v-96h-184v96h-152v-96h-192v96h-120v-936h601.768c-19.080 16-36.048 32-50.456 56h-495.312v664h648v-212.832c24 6.24 43.408 11.048 65.264 12.8zM768 872h8v-416h-8v416z" />
<glyph unicode="&#xe12f;" glyph-name="places" d="M510 960c-140.6 0-254.576-113.984-254.576-254.584 0-27.68 4.48-54.312 12.656-79.272l241.92-580.96 241.92 580.96c8.168 24.96 12.656 51.592 12.656 79.272 0 140.6-113.984 254.584-254.576 254.584zM510 603.584c-56.24 0-101.832 45.6-101.832 101.832 0 56.256 45.592 101.832 101.832 101.832 56.232 0 101.832-45.584 101.832-101.832 0-56.232-45.6-101.832-101.832-101.832zM760.816 144h-175l-73.816-182.056v-25.944h514zM434.184 144h-171l-265.184-208h514v25.944z" />
<glyph unicode="&#xe130;" glyph-name="insurances" d="M511.248 859.696c-217.656 0-397.184-163.128-423.064-373.776 52.248 39.344 174.528 109.424 249.2-25.768 0 0 152.128 287.536 342.704 5.016 0 0 99.376 160.504 255.72 6.4-19.296 217.56-201.992 388.128-424.56 388.128zM392 192.624l3.112 165.24c0 0 28.376 29.928 47.232 23.648 18.912-6.312 66.144-55.096 66.144-55.096l67.68 56.648c0 0 50.336-9.464 50.336-31.496 0-22.024 0-160.576 0-160.576s3.168-20.44-33.008-20.44c-20.096 0-34.664-234.56-34.664-234.56h-99.152l-31.496 237.704c0 0.008-36.184-9.416-36.184 18.928zM570.904 441.832c0-33.032-28.512-59.8-63.8-59.8-35.144 0-63.736 26.768-63.736 59.8 0 33 28.592 59.832 63.736 59.832 35.288 0 63.8-26.832 63.8-59.832zM512 960l62.352-112h-124.704l31.176 56z" />
<glyph unicode="&#xe131;" glyph-name="e-services" d="M1024 176v784h-1024v-784h440v-67.864c-92.104-26.096-192.088-94.88-192.744-172.136h529.496c-0.68 79.496-106.536 150.016-200.752 174.288v65.712h448zM104 864h808v-592h-808v592zM712.16 530.048c0-10.128-3.968-21.608-11.92-34.456-7.936-12.888-18.608-26.272-31.984-40.232-14.768-15.032-30.968-29.064-48.608-42.040-17.672-13.016-36-24.224-55.016-33.656-19-9.44-38.376-16.832-58.040-22.168-19.696-5.336-38.848-7.992-57.432-7.992-22.984 0-43.464 3.624-61.36 10.864-17.92 7.248-33.12 17.904-45.536 32.016-12.48 14.064-21.944 31.672-28.52 52.72-6.584 21.056-9.88 45.288-9.88 72.624 0 16.424 1.584 33.096 4.752 50.048 3.152 16.968 7.704 33.864 13.744 50.688 6 16.816 13.552 33.088 22.608 48.832 8.976 15.72 19.248 30.56 30.744 44.504 7.36 8.752 15.792 17.592 25.232 26.472 9.432 8.888 19.88 16.888 31.368 24.008 11.504 7.104 24.176 12.928 37.976 17.448 13.816 4.488 28.776 6.76 44.944 6.76 13.096 0 24.8-2.4 35.064-7.176 10.232-4.768 18.936-10.856 26.032-18.264 7.128-7.36 12.592-15.72 16.424-25.032 3.832-9.28 5.768-18.456 5.768-27.472 0-21.36-4.576-41.24-13.752-59.712-9.16-18.48-21.936-36.104-38.408-52.944-16.376-16.816-36.136-33.296-59.24-49.44-23.12-16.136-48.648-32.688-76.528-49.648-1.392-0.552-3.504-1.776-6.376-3.688-2.872-1.928-4.288-3.152-4.288-3.696 0.264-5.472 1.632-11.36 4.088-17.64 2.472-6.304 6.288-12.168 11.504-17.64 5.168-5.472 11.832-10.048 19.888-13.76 8.064-3.696 17.696-5.52 28.936-5.52 17.216 0 34.584 2.392 52.088 7.168 17.496 4.792 34.776 11.696 51.728 20.728 16.92 9.032 33.504 19.952 49.624 32.84 16.168 12.84 31.472 27.344 45.968 43.488 5.472 6.296 10.872 10.8 16.2 13.544 5.344 2.72 10.344 4.080 14.952 4.080 4.656 0 8.672-1.896 12.128-5.72 3.424-3.84 5.128-10.816 5.128-20.936zM513.136 687.184c0 4.392-0.824 8.016-2.464 10.872-1.624 2.864-3.496 5.144-5.528 6.8-2.040 1.616-4.104 2.792-6.168 3.472-2.040 0.656-3.488 1.048-4.28 1.048-12.32 0-23.688-4.72-34.072-14.168-10.376-9.44-19.696-21.528-27.896-36.312-8.208-14.768-15.392-31.056-21.512-48.84-6.168-17.784-11.296-35.016-15.416-51.688 16.432 12.576 31.736 24.2 45.928 34.872 14.248 10.672 26.616 21.072 37.16 31.2 10.536 10.096 18.88 20.232 25.040 30.36 6.136 10.088 9.208 20.904 9.208 32.384z" />
<glyph unicode="&#xe132;" glyph-name="dispatcher" d="M960 432.32c0 0-32 39.84-64 7.84l64-184.16h-256c0 0 0-15.68 0-79.68s-64-48.32-64-48.32-192 0-256 0-64 48.32-64 48.32v79.68h-256l64 184.16c-32 32-64-3.936-64-3.936l-64-195.904v-272.32h1024v272.32l-64 192zM721.28 943.68c15.168-15.2 273.632-221.76 273.632-221.76s7.136-7.168 0-14.272l-264.672-228.896c0 0-17.888-17.888-35.776 0v149.92c0 0-42.944 25.024-121.6 25.024-78.72 0-236.064-74.784-293.312-174.944 0 0-14.272-7.136-14.272 14.304 0 21.472 64.384 322.4 429.184 322.4l0.64 127.648z" />
<glyph unicode="&#xe133;" glyph-name="codes" d="M512 737.128c86.288 0 163.776-41.128 217.128-97.128h100.864c-65.592 96-183.576 178.496-317.992 178.496-134.408 0-252.408-82.496-317.992-178.496h100.872c53.352 56 130.84 97.128 217.12 97.128zM512 148.752c-101.76 0-191.296 51.248-243.4 131.248h-93.136c60.008-120 188.288-212.624 336.536-212.624s276.528 92.624 336.536 212.624h-93.136c-52.112-80-141.632-131.248-243.4-131.248zM220.624 442.936c0 41.040 8.528 77.064 23.84 117.064h-86.808c-11.888-40-18.4-76.752-18.4-117.064 0-27.952 3.192-58.936 9.048-82.936h83.928c-7.512 24-11.608 54.68-11.608 82.936zM92 442.936c0 40.056 5.76 77.064 16.28 117.064h-86.832c-8.696-40-13.448-77.304-13.448-117.064 0-27.72 2.336-58.936 6.632-82.936h85.352c-5.192 24-7.984 55.104-7.984 82.936zM237.544 864h-229.544v-120h102.448c35.184 48 78.216 88 127.096 120zM786.456 864c48.88-32 91.92-72 127.104-120h102.44v120h-229.544zM989.872 280h-89.672c-63.080-152-213.288-259.872-388.2-259.872s-325.12 107.872-388.208 259.872h-89.664c18.024-56 44.928-104 78.872-144h-105v-120h235.16c77.8-48 169.968-76.128 268.84-76.128 98.88 0 191.048 28.128 268.84 76.128h235.16v120h-105.008c33.952 40 60.864 88 78.88 144zM46.84 640h92.96c70.24 128 210.672 225.744 372.2 225.744s301.952-97.744 372.192-225.744h92.96c-76.056 176-255.648 309.752-465.152 309.752s-389.096-133.752-465.16-309.752z" />
<glyph unicode="&#xe134;" glyph-name="clients" d="M899.752 477.76c0-96.448-83.376-174.632-186.216-174.632-102.768 0-186.176 78.184-186.176 174.632 0 96.44 83.416 174.736 186.176 174.736 102.84 0 186.216-78.296 186.216-174.736zM1024-64c0 114.144 0 270.424 0 307.048 0 59.28-135.576 84.752-135.576 84.752l-182.192-152.504c0 0-127.096 131.264-177.936 148.248-50.864 16.936-127.144-63.592-127.144-63.592l-1.152-323.952h624zM506.704 373.496c-17.432 31.128-27.352 66.6-27.352 104.256 0 63.288 27.944 120.448 72.648 161.040v321.208h-552v-664h369.24c17.432 17.784 76.888 73.656 137.464 77.496zM284.384 853.128l45.36-56.704 134.32 101 35.792-49.968-192.792-130.416-73.712 102.064 51.032 34.024zM152 368h-104v104h104v-104zM152 568h-104v88h104v-88zM152 752h-104v104h104v-104zM307.064 524.256l-73.712 102.064 51.032 34.016 45.36-56.704 134.32 101.008 35.792-49.976-192.792-130.408z" />
<glyph unicode="&#xe135;" glyph-name="zip-codes" d="M0.232-64l197.408 93.856 139.816 306.664-95.928-41.616zM414.848 294.904l-61.32 41.616-139.872-306.664 119.68-93.856zM1023.768-64l-197.408 93.856-139.816 306.664 95.928-41.616zM609.152 294.904l61.32 41.616 139.872-306.664-119.68-93.856zM425.496 294.904l-80.152-358.904 158.656 93.856v147.976l-54.136 130zM520 29.856l158.456-93.856-80.344 358.904-24.408 13.008-53.704-128.96zM511.768 960c-110.28 0-199.688-89.408-199.688-199.696 0-21.712 3.512-42.6 9.928-62.176l189.76-455.704 189.768 455.704c6.408 19.576 9.92 40.472 9.92 62.176 0 110.288-89.4 199.696-199.688 199.696zM511.768 680.432c-44.112 0-79.872 35.768-79.872 79.872 0 44.128 35.768 79.88 79.872 79.88 44.12 0 79.872-35.76 79.872-79.88 0-44.112-35.76-79.872-79.872-79.872z" />
<glyph unicode="&#xe136;" glyph-name="authorities" d="M688.992 600h-40.992v72h2.6c-0.544 80-62.096 138.112-137.944 138.112-75.84 0-137.392-58.112-137.936-138.112h1.28v-72h-39.672c-8.408 0-16.328-9.072-16.328-17.616v-250.584c0-8.488 7.92-11.8 16.328-11.8h352.664c8.408 0 15.008 3.312 15.008 11.8v250.584c0 8.544-6.6 17.616-15.008 17.616zM600 672.256v-72.256h-168v71.928c0 46.48 37.168 84.272 83.664 84.272 46.52 0 84.304-37.832 84.648-84.36 0 0.144-0.312 0.28-0.312 0.416zM714.688 659.568c30.992-11.040 53.312-41.464 53.312-77.184v-250.584c0-43.216-33.968-75.8-79.008-75.8h-352.664c-45.8 0-80.328 32.584-80.328 75.8v250.584c0 35.16 23.232 65.984 54.632 77.16l0.088 12.896c0.080 10.768 0.952 21.296 2.56 31.56h-145.28v-616h688v616h-143.96c1.608-10.264 2.496-20.8 2.56-31.56l0.088-12.872zM0 960v-1024h1024v1024h-1024zM88 856h144v-48h-144v48zM968 8h-912v744h270.935c30.624 72.441 101.504 122.112 185.721 122.112s155.104-49.671 185.728-122.112h269.616v-744z" />
<glyph unicode="&#xe137;" glyph-name="residence-primary" d="M0 512l512 448 512-448h-128l-384 336-384-336zM64-64v576h64v-512h768v512h64v-576zM421.872 492.184c68.44 1.816 110.688 4.312 122.44 83.816h31.688v-434.936h-39.128v323.12h-115v28z" />
<glyph unicode="&#xe138;" glyph-name="residence-secondary" d="M0 512l512 448 512-448h-128l-384 336-384-336zM64-64v576h64v-512h768v512h64v-576zM658.312 137.312h-286.496c2.44 129.248 136.064 161.56 209.44 234.872 24.184 24.248 36 47.184 36 82.064 0 56.504-44.752 88.872-97.56 88.872-71.504 0-100.064-57.184-98.184-121.248h-39.128c-1.88 89.504 44.744 154.128 139.176 154.128 75.752 0 134.816-41.624 134.816-122.376 0-72.752-52.184-118.128-109.376-154.752-42.184-28-120.504-67.752-130.504-125.504h241.816v-36.056z" />
<glyph unicode="&#xe139;" glyph-name="residence-other" d="M0 512l512 448 512-448h-128l-384 336-384-336zM64-64v576h64v-512h768v512h64v-576zM402.312 275.816c-3.128-68.936 39.184-114.936 108.688-114.936 57.248 0 111.248 34.248 111.248 96.376s-46.56 91.936-104.376 91.936h-33v32.872h33c40.376 0 88.248 23.624 88.248 79 0 57.128-42.872 82-95.128 82-64.624 0-100.688-45.376-98.752-110h-39.184c0.008 82 52.816 142.936 137.32 142.936 67.752 0 134.872-33.56 134.872-110.624 0-47.248-26.128-84.504-73.376-96.312v-1.312c57.184-9.248 89.504-50.248 89.504-107.44 0-85.128-69.624-132.312-149.688-132.312-89.44 0-155.44 54.624-148.56 147.816h39.184z" />
<glyph unicode="&#xe13a;" glyph-name="information" d="M512 960c-282.752 0-512-229.248-512-512s229.248-512 512-512 512 229.248 512 512-229.248 512-512 512zM413.504 70.624c-40 0-67 18.472-67 60.296 0 115.832 126 309.832 126 387.832 0 8-4 14.592-13 14.592-22 6.080-62.28-28-121.904-102.752 39.904 104.752 113.904 196 239.816 194.656 39 0 67-18.656 67-60.656 0-115.544-126.904-309.096-126.904-387.376 0-7.544 5-15.544 14-15.544 21.84-6 61.904 29.080 120.904 103.832-39.008-105.832-112.912-196.032-238.912-194.88zM599.408 652.424c-47.904 0-86.904 38.752-86.904 86.672 0 47.576 39 86.080 86.904 86.080 48 0 86.84-38.504 86.84-86.080 0-47.928-38.84-86.672-86.84-86.672z" />
<glyph unicode="&#xe13b;" glyph-name="information-out" d="M896 960h-256v-128h256v-256h128v384zM850.472 832c-59.536 52.496-131.256 91.472-210.472 111.872v-111.872h210.472zM896 786.472v-210.472h111.872c-20.4 79.216-59.368 150.936-111.872 210.472zM832 512v256h-150.872c3.264-9.048 5.128-18.752 5.128-28.904 0-47.92-38.84-86.672-86.84-86.672-47.904 0-86.904 38.752-86.904 86.672 0 39.512 26.936 72.688 63.504 82.816v133.96c-21 2.624-42.328 4.128-64.016 4.128-282.752 0-512-229.248-512-512s229.248-512 512-512 512 229.248 512 512c0 21.688-1.504 43.016-4.128 64h-187.872zM413.504 70.624c-40 0-67 18.472-67 60.296 0 115.832 126 309.832 126 387.832 0 8-4 14.592-13 14.592-22 6.080-62.28-28-121.904-102.752 39.904 104.752 113.904 196 239.816 194.656 39 0 67-18.656 67-60.656 0-115.544-126.904-309.096-126.904-387.376 0-7.544 5-15.544 14-15.544 21.84-6 61.904 29.080 120.904 103.832-39.008-105.832-112.912-196.032-238.912-194.88z" />
<glyph unicode="&#xe13c;" glyph-name="warning" d="M512.184 960l-512-1024h1024l-512 1024zM578.528 618.656l-18.344-377.904h-95.088l-18.408 377.904h131.84zM512.592 47.16h-1.624c-43.408 0-73.44 32.544-73.44 75.968 0 45 30.872 75.904 75.064 75.904 44.216 0 73.44-30.904 74.248-75.904 0-43.424-29.152-75.968-74.248-75.968z" />
<glyph unicode="&#xe13d;" glyph-name="warning-out" d="M896 960h-256v-128h256v-256h128v384zM576 768v64l-64 128-512-1024h1024l-416 832h-32zM578.344 618.656l-18.344-377.904h-95.096l-18.408 377.904h131.848zM512.408 47.16h-1.624c-43.408 0-73.44 32.544-73.44 75.968 0 45 30.872 75.904 75.064 75.904 44.216 0 73.44-30.904 74.248-75.904 0-43.424-29.152-75.968-74.248-75.968z" />
<glyph unicode="&#xe13e;" glyph-name="error" d="M511.968 960c-282.672 0-511.968-229.184-511.968-512 0-282.688 229.296-512 511.968-512 282.864 0 512.032 229.312 512.032 512 0 282.816-229.168 512-512.032 512zM832 384h-640v128h640v-128z" />
<glyph unicode="&#xe13f;" glyph-name="error-out" d="M895.296 960h-255.296v-128h255.296v-256h128.704v384zM832 512v256h-256v176c-20.984 2.624-44.784 5.408-66.48 5.408-281.336 0-509.52-226.816-509.52-506.672 0-279.8 228.184-506.736 509.52-506.736 281.4 0 509.512 226.936 509.512 506.736 0 23.512-1.752 46.608-4.856 69.264h-182.176zM824 384h-632v128h632v-128zM895.296 773.528v-197.528h105.816c-20.24 73.968-56.88 141.144-105.816 197.528z" />
<glyph unicode="&#xe140;" glyph-name="search" d="M992.384-19.52l-24.32-24.32c-26.88-26.944-70.528-26.944-97.344 0l-194.624 194.56c-22.592 22.592-88.32 123.008-73.024 149.312l-43.008 39.808c-57.28-42.432-127.872-67.904-204.544-67.904-190.016 0-344 154.048-344 344-0.064 190.016 153.984 344.064 344 344.064 189.952 0 344-154.048 344-344 0-88.448-33.6-168.832-88.512-229.76l43.328-40.64c26.368 15.296 120.896-50.688 143.424-73.28l194.624-194.56c26.88-26.816 26.88-70.4 0-97.28zM59.776 617.408c5.376-174.784 129.344-298.752 294.976-298.752 168.512 0 303.296 156.224 303.296 298.752 0 142.464-140.16 299.456-303.296 299.456-144.064 0-300.032-134.784-294.976-299.456zM129.792 830.72h102.144v-91.392h-102.144v91.392zM296.448 846.848h129.024v-107.52h-129.024v107.52zM489.984 819.968h80.64v-80.64h-80.64v80.64zM490.048 674.816h107.52v-129.024h-107.52v129.024zM264.192 707.072h193.536v-193.536h-193.536v193.536zM124.416 674.816h107.52v-129.024h-107.52v129.024zM145.92 481.28h86.016v-75.264h-86.016v75.264zM296.448 481.28h129.024v-107.52h-129.024v107.52zM490.048 481.28h86.016v-86.016h-86.016v86.016z" />
<glyph unicode="&#xe141;" glyph-name="parking" d="M0 960v-1024h1024v1024h-1024zM1006.912-46.912h-989.824v989.824h989.888v-989.824zM283.264 744.256c44.416 7.616 106.752 13.248 194.688 13.248 88.896 0 152.192-17.024 194.688-51.008 41.6-32.192 68.096-85.184 68.096-147.456 0-62.4-19.904-116.288-58.624-151.232-49.152-45.44-121.92-67.136-206.976-67.136-18.944 0-35.968 0.96-49.216 3.776v-228.672h-142.656v628.48zM425.984 455.040c12.288-2.88 26.496-3.776 48.192-3.776 76.608 0 123.84 38.72 123.84 102.976 0 58.624-40.64 93.568-113.408 93.568-28.352 0-48.192-1.856-58.624-4.672v-188.096z" />
<glyph unicode="&#xe142;" glyph-name="report" d="M0 800.64h1024v-99.584h-1024v99.584zM489.28 800.64v45.504h79.616v-45.504h56.896l-0.448 81.088c0 0 0.448 21.312-22.336 21.312s-147.904 0-147.904 0-22.784 0-22.784-22.784c0-22.72 0-79.616 0-79.616h56.96zM62.656 647.104v-654.144h898.752v654.144h-898.752zM904.576 499.2l-216.192-147.904-85.312 39.808-119.424-261.696-170.624 142.272-193.408-170.688v79.616l199.040 170.688 153.6-136.512 102.4 244.544 113.728-39.808 216.192 159.232v-79.552z" />
<glyph unicode="&#xe143;" glyph-name="default-app" d="M928.512 468.288h-99.072v297.152h-309.44v86.656c-148.544 235.264-297.152 12.416-297.152 12.416v-99.072h-222.848v-297.152h86.656c0 0 111.424-37.056 111.424-148.48s-111.424-148.544-111.424-148.544h-86.656v-233.216l208.448 2.112 2.048 82.496c0 0 12.352 111.424 148.544 111.424s148.544-123.904 148.544-123.904v-74.176h317.696l4.096 235.264h99.072c210.56 148.544 0.064 297.024 0.064 297.024zM160.96-26.816h-123.776v123.776h123.84v-123.776zM866.624 926.464h123.776v-123.84h-123.776v123.84z" />
<glyph unicode="&#xe144;" glyph-name="dashboard" d="M64 960h192.192v-192.16h-192.192v192.16zM64 704h192.192v-192.16h-192.192v192.16zM768 960h192v-192h-192v192zM768 704h192v-192h-192v192zM512 960h192v-192h-192v192zM512 704h192v-192h-192v192zM77.696 193.024l48.512 128.544h192.608l-48.288-128.544zM252.448 128.8l-64.288-192.8-188.16 1.056 59.616 191.744zM252.448-64l64.224 192.8h160.8l-0.224-192.8zM478.624 193.024v128.544h-97.664l-42.208-128.544zM946.304 193.024l-48.512 128.544h-192.608l45.696-128.544zM771.552 128.8l64.288-192.8 188.16 1.056-59.616 191.744zM771.552-64l-64.224 192.8h-160.8l0.224-192.8zM542.688 193.024v128.128h96.096l48.672-128.128zM414.048 438.592h64.576v-64.064h-83.104z" />
<glyph unicode="&#xe145;" glyph-name="context-menu" d="M0 960h256v-256h-256v256zM0 576h256v-256h-256v256zM0 192h256v-256h-256v256zM1024 409.952l-641.336 550.048 1.408-854.456 224.144 106.624 148.536-276.168 145.96 71.048-147.848 274.88z" />
<glyph unicode="&#xe146;" glyph-name="app-menu" d="M0 960h256v-256h-256v256zM384 960h256v-256h-256v256zM768 960h256v-256h-256v256zM0 576h256v-256h-256v256zM384 576h256v-256h-256v256zM768 576h256v-256h-256v256zM0 192h256v-256h-256v256zM384 192h256v-256h-256v256zM768 192h256v-256h-256v256z" />
<glyph unicode="&#xe147;" glyph-name="search-btn" d="M796.464 265.736c51.448 71.92 81.824 159.944 81.824 255.128-0.008 242.528-196.608 439.136-439.144 439.136s-439.144-196.608-439.144-439.144c0-242.536 196.6-439.144 439.144-439.144 94.136 0 181.28 29.72 252.768 80.144l226.304-225.856h65.856c0 0 39.92 15.968 39.92 46.576 0 30.6 0 55.544 0 55.544l-227.528 227.616zM439.144 241.4c-154.344 0-279.456 125.12-279.456 279.464 0 154.336 125.112 279.456 279.456 279.456s279.464-125.12 279.464-279.456c-0.008-154.352-125.12-279.464-279.464-279.464z" />
<glyph unicode="&#xe148;" glyph-name="confirmation" d="M0 351.968l106.712 106.712 213.24-213.32 597.336 618.616 106.712-106.648-704.048-725.304z" />
<glyph unicode="&#xe149;" glyph-name="inquiry" d="M590.624 736c40.576 0 73.392-32.536 73.392-72.744 0-40.488-32.816-73.208-73.392-73.208-40.448 0-73.416 32.728-73.416 73.208 0 40.216 32.968 72.744 73.416 72.744v0zM474.016 474.616c0 6.744-3.392 12.312-11 12.312-18.584 5.144-52.616-23.664-103-86.808 33.712 88.496 96.264 165.592 202.624 164.464 32.96 0 56.64-15.776 56.64-51.256 0-97.616-107.256-261.136-107.256-327.28 0-6.368 4.224-13.144 11.832-13.144 18.456-5.064 52.32 24.576 102.168 87.744-32.936-89.424-95.424-165.608-201.84-164.64-33.808 0-56.648 15.616-56.648 50.936-0.008 97.872 106.48 261.768 106.48 327.672zM919.848 642.584c-0.032 1.16-0.192 2.352-0.488 3.576-0.096 0.584-0.224 1.096-0.424 1.68-0.224 0.808-0.456 1.672-0.776 2.552-0.224 0.544-0.448 1.128-0.64 1.672-0.488 1.128-1.040 2.264-1.648 3.416-0.168 0.312-0.312 0.648-0.488 0.936-0.8 1.416-1.744 2.936-2.768 4.448-0.368 0.456-0.712 0.968-1.072 1.456-0.864 1.128-1.744 2.288-2.704 3.472-0.4 0.448-0.784 0.944-1.2 1.448-1.392 1.6-2.864 3.208-4.512 4.888l-269.928 270.968c-1.608 1.648-3.184 3.096-4.776 4.48-0.544 0.424-1 0.84-1.504 1.264-1.104 0.936-2.168 1.776-3.288 2.616-0.488 0.352-1.064 0.792-1.584 1.144-1.32 0.92-2.616 1.76-3.904 2.504-0.832 0.488-1.64 0.888-2.416 1.256-0.52 0.288-1.136 0.56-1.616 0.776-0.904 0.448-1.808 0.832-2.68 1.136-0.128 0.056-0.248 0.096-0.384 0.112-2.064 0.72-4.104 1.192-6.032 1.408h-0.096v0.208h-364.904c-75.128 0-135.968-61.096-135.968-136.512v-750.944c0-75.416 60.84-136.536 135.968-136.536h543.928c75.104 0 136.008 61.128 136.008 136.536v570.040h-0.104zM851.952 72.536c0-37.664-30.496-68.28-68.008-68.28h-543.928c-37.512 0-68 30.616-68 68.28v750.952c0 37.616 30.488 68.256 68 68.256h339.928v-124.464c3.552 0.352 7.104 0.528 10.68 0.528 58.256 0 105.392-46.712 105.392-104.44 0-16.016-3.688-31.112-10.096-44.688h166.032v-546.144z" />
<glyph unicode="&#xe14a;" glyph-name="letter" d="M115.608 896v-960h792.784v957.936l-792.784 2.064zM844.968 2.064h-665.936v825.8h665.936v-825.8zM280.776 629.68h462.456v-33.032h-462.456v33.032zM280.776 497.544h462.456v-33.032h-462.456v33.032zM280.776 233.288h462.456v-33.032h-462.456v33.032zM280.776 365.424h462.456v-33.032h-462.456v33.032zM280.776 960h66.064v-198.192h-66.064v198.192zM412.904 960h66.064v-198.192h-66.064v198.192zM545.032 960h66.064v-198.192h-66.064v198.192zM677.168 960h66.064v-198.192h-66.064v198.192z" />
<glyph unicode="&#xe14b;" glyph-name="list" d="M310.544 923.784c-4.848 4.896-12.712 4.896-17.56 0l-158.208-158.104-75.24 75.728c-4.856 4.92-12.712 4.92-17.568 0l-26.416-26.336c-4.856-4.816-4.856-12.776 0-17.584l83.688-84.352c0.144-0.136 0.144-0.256 0.272-0.392l26.336-26.344c4.856-4.792 12.776-4.792 17.632 0l193.472 193.472c4.848 4.92 4.848 12.776 0 17.56l-26.408 26.352zM87.592 349.752l26.352-26.328c4.856-4.792 12.776-4.792 17.632 0l193.472 193.456c4.848 4.912 4.848 12.776 0 17.56l-26.424 26.336c-4.848 4.936-12.688 4.936-17.56 0l-158.2-158.056-75.256 75.704c-4.856 4.92-12.688 4.92-17.544 0l-26.424-26.352c-4.848-4.784-4.848-12.776 0-17.552l83.696-84.36c0.128-0.136 0.128-0.28 0.256-0.408zM310.544 209.52c-4.848 4.904-12.712 4.904-17.56 0l-158.208-158.080-75.24 75.712c-4.856 4.912-12.712 4.912-17.568 0l-26.416-26.344c-4.856-4.808-4.856-12.776 0-17.576l83.688-84.352c0.144-0.136 0.144-0.264 0.272-0.392l26.336-26.344c4.856-4.8 12.776-4.8 17.632 0l193.472 193.472c4.848 4.912 4.848 12.776 0 17.56l-26.408 26.344zM476.864 839.136h547.136v-68.136h-547.136v68.136zM476.864 476.168h547.136v-68.128h-547.136v68.128zM476.864 103.584h547.136v-68.112h-547.136v68.112z" />
<glyph unicode="&#xe14c;" glyph-name="other" d="M512.040 569.704c67.664 0 122.392-54.256 122.392-121.312 0-67.52-54.728-122.096-122.392-122.096-67.488 0-122.472 54.568-122.472 122.096 0 67.056 54.984 121.312 122.472 121.312v0zM901.608 569.704c67.672 0 122.392-54.256 122.392-121.312 0-67.52-54.72-122.096-122.392-122.096-67.48 0-122.464 54.568-122.464 122.096 0.008 67.056 54.992 121.312 122.464 121.312v0zM122.464 569.704c67.664 0 122.384-54.256 122.384-121.312 0-67.52-54.72-122.096-122.384-122.096-67.48 0-122.464 54.568-122.464 122.096 0 67.056 54.984 121.312 122.464 121.312v0z" />
<glyph unicode="&#xe14d;" glyph-name="statistics" d="M526.864 475.624v462.072c127.488 0 242.192-50.984 326.12-134.912 83.904-83.92 134.88-198.632 134.88-326.104h-230.48l-230.52-1.056zM562.984 407.64l265.544-378.168c123.232 87.12 195.472 227.312 195.472 378.168h-461.016zM831.728 104.888l-181.632 259.192h315.472c-0.008-103.032-49.92-199.704-133.84-259.192zM461.016 419.312l257.064-382.408c-76.504-51-165.712-78.608-257.064-78.608-254.936 0-461.016 206.080-461.016 461.016 0 254.944 206.080 461.024 461.016 461.024v-461.024z" />
<glyph unicode="&#xe14e;" glyph-name="person-confirmation" d="M0 351.968l106.712 106.712 213.24-213.328 597.336 618.624 106.712-106.648-704.048-725.296zM898.832 309.416c0-49.128-42.504-88.96-94.88-88.96-52.344 0-94.84 39.832-94.84 88.96 0 49.104 42.504 89 94.84 89 52.384 0 94.88-39.904 94.88-89zM962.096 33.456c0 58.128 0 137.744 0 156.384 0 30.224-69.048 43.192-69.048 43.192l-92.808-77.68c0 0-64.744 66.84-90.648 75.512-25.896 8.616-65.464-32.384-65.464-32.384v-165.032h317.968z" />
<glyph unicode="&#xe14f;" glyph-name="person-inquiry" d="M571.632 736c40.576 0 73.384-32.528 73.384-72.744 0-40.488-32.808-73.208-73.384-73.208-40.456 0-73.424 32.728-73.424 73.208 0 40.216 32.968 72.744 73.424 72.744v0zM455.016 474.608c0 6.744-3.384 12.312-11 12.312-18.576 5.144-52.608-23.664-103-86.816 33.712 88.504 96.256 165.6 202.616 164.472 32.96 0 56.64-15.776 56.64-51.256 0-97.608-107.256-261.128-107.256-327.272 0-6.368 4.224-13.144 11.832-13.144 18.456-5.072 52.328 24.576 102.168 87.744-32.936-89.424-95.424-165.616-201.84-164.648-33.816 0-56.648 15.608-56.648 50.936 0 97.872 106.488 261.776 106.488 327.672zM832.952 72.528c0-2.064-0.424-4.016-0.616-6.016h40.552v49.832l-39.936-33.416v-10.4zM554.92 4.256h-333.904c-37.512 0-68 30.608-68 68.272v750.96c0 37.608 30.488 68.256 68 68.256h339.936v-124.472c3.544 0.36 7.096 0.528 10.68 0.528 58.256 0 105.384-46.712 105.384-104.44 0-16.016-3.68-31.112-10.096-44.688h166.032v-195.712c26.472-8.776 49.776-23.984 68-43.728v263.344h-0.104c-0.032 1.168-0.184 2.36-0.488 3.584-0.096 0.576-0.216 1.096-0.416 1.672-0.224 0.816-0.456 1.68-0.776 2.552-0.224 0.544-0.456 1.128-0.648 1.672-0.488 1.136-1.032 2.256-1.64 3.424-0.168 0.304-0.328 0.648-0.488 0.936-0.816 1.416-1.744 2.928-2.776 4.448-0.36 0.456-0.712 0.968-1.072 1.456-0.864 1.136-1.744 2.288-2.712 3.472-0.384 0.456-0.776 0.952-1.184 1.456-1.392 1.592-2.872 3.208-4.512 4.888l-269.928 270.96c-1.616 1.648-3.192 3.096-4.776 4.488-0.544 0.416-0.992 0.832-1.512 1.256-1.104 0.936-2.168 1.776-3.288 2.616-0.488 0.352-1.072 0.792-1.584 1.144-1.32 0.92-2.608 1.76-3.896 2.504-0.84 0.488-1.648 0.888-2.424 1.256-0.512 0.288-1.136 0.56-1.616 0.776-0.896 0.456-1.808 0.84-2.672 1.128-0.136 0.064-0.256 0.096-0.392 0.112-2.064 0.728-4.096 1.192-6.032 1.4h-0.096v0.224h-364.904c-75.128 0-135.968-61.096-135.968-136.512v-750.952c0-75.4 60.84-136.528 135.968-136.528h333.904v68.248zM875.696 276.424c0-49.136-42.504-88.968-94.888-88.968-52.336 0-94.832 39.832-94.832 88.968 0 49.096 42.504 89 94.832 89 52.384 0 94.888-39.912 94.888-89zM938.952 0.456c0 58.128 0 137.744 0 156.384 0 30.208-69.048 43.192-69.048 43.192l-92.816-77.696c0 0-64.744 66.856-90.64 75.528-25.904 8.616-65.472-32.4-65.472-32.4v-165.016h317.976z" />
<glyph unicode="&#xe150;" glyph-name="person-letter" d="M256 629.672h462.456v-33.032h-462.456v33.032zM256 497.544h462.456v-33.032h-462.456v33.032zM256 960h66.064v-198.192h-66.064v198.192zM388.128 960h66.064v-198.192h-66.064v198.192zM520.256 960h66.064v-198.192h-66.064v198.192zM652.392 960h66.064v-198.192h-66.064v198.192zM643.472 365.424h-387.472v-33.032h369.136c4.728 11.776 10.896 22.848 18.336 33.032zM869.904 276.424c0-49.136-42.504-88.968-94.888-88.968-52.336 0-94.832 39.832-94.832 88.968 0 49.096 42.504 89 94.832 89 52.392 0 94.888-39.912 94.888-89zM933.168 0.456c0 58.128 0 137.744 0 156.384 0 30.208-69.056 43.192-69.056 43.192l-92.808-77.696c0 0-64.744 66.856-90.64 75.528-25.904 8.616-65.472-32.4-65.472-32.4v-165.016h317.976zM567.648 211.336c5.384 5.6 14.24 13.712 25.096 21.952h-336.744v-33.032h300.952l10.696 11.080zM549.136 2.064h-394.88v825.808h665.936v-402.704c23.936-6.776 45.504-18.8 63.416-34.632v503.4l-792.768 2.064v-960h458.296v66.064z" />
<glyph unicode="&#xe151;" glyph-name="person-list" d="M310.544 923.784c-4.856 4.904-12.712 4.904-17.568 0l-158.2-158.096-75.24 75.728c-4.856 4.92-12.712 4.92-17.568 0l-26.416-26.336c-4.856-4.808-4.856-12.776 0-17.576l83.688-84.352c0.144-0.128 0.144-0.256 0.272-0.384l26.336-26.352c4.856-4.792 12.776-4.792 17.632 0l193.472 193.472c4.856 4.92 4.856 12.776 0 17.56l-26.408 26.336zM87.592 349.744l26.352-26.328c4.856-4.792 12.776-4.792 17.632 0l193.472 193.464c4.856 4.92 4.856 12.776 0 17.568l-26.416 26.336c-4.856 4.936-12.696 4.936-17.568 0l-158.2-158.072-75.256 75.72c-4.856 4.92-12.688 4.92-17.544 0l-26.424-26.352c-4.848-4.776-4.848-12.776 0-17.552l83.696-84.376c0.128-0.136 0.128-0.28 0.256-0.408zM310.544 209.512c-4.856 4.904-12.712 4.904-17.568 0l-158.208-158.080-75.24 75.712c-4.856 4.912-12.712 4.912-17.568 0l-26.416-26.344c-4.856-4.808-4.856-12.776 0-17.576l83.688-84.36c0.144-0.128 0.144-0.256 0.272-0.384l18.224-18.24 4.272-4.24 3.856-3.872c4.856-4.792 12.776-4.792 17.632 0l193.472 193.472c4.856 4.92 4.856 12.776 0 17.568l-26.416 26.344zM476.872 839.144h547.128v-68.128h-547.128v68.128zM476.872 476.168h547.128v-68.144h-547.128v68.144zM748.624 76.832c-8.688 8.984-18.2 18.192-27.384 26.744h-15.208v-36.576h52.168l-9.576 9.832zM876.032 103.576l-43.728-36.576h59.568v36.576zM476.872 103.576h97.032v-68.112h-97.032v68.112zM894.68 276.904c0-49.136-42.504-88.968-94.888-88.968-52.336 0-94.832 39.832-94.832 88.968 0 49.096 42.504 89 94.832 89 52.384 0 94.888-39.904 94.888-89zM957.936 0.936c0 58.128 0 137.744 0 156.384 0 30.208-69.048 43.192-69.048 43.192l-92.816-77.696c0 0-64.744 66.856-90.64 75.528-25.904 8.616-65.472-32.4-65.472-32.4v-165.016h317.976z" />
<glyph unicode="&#xe152;" glyph-name="person-other" d="M512.032 550.688c57.096 0 103.264-45.784 103.264-102.36 0-56.968-46.168-103.016-103.264-103.016-56.936 0-103.328 46.048-103.328 103.016 0 56.576 46.392 102.36 103.328 102.36v0zM183.328 550.688c57.096 0 103.264-45.784 103.264-102.36 0-56.968-46.168-103.016-103.264-103.016-56.936 0-103.328 46.048-103.328 103.016 0 56.576 46.392 102.36 103.328 102.36v0zM794.832 432c48.456 0 91.8-21.408 120.424-54.92 17.784 18.504 28.752 43.544 28.752 71.248 0 56.576-46.168 102.36-103.264 102.36-56.936 0-103.328-45.784-103.328-102.36 0-8.936 1.248-17.544 3.408-25.832 16.848 6.032 34.992 9.504 54.008 9.504zM886.752 281.784c0-47.592-41.168-86.184-91.92-86.184-50.704 0-91.872 38.592-91.872 86.184-0.008 47.56 41.168 86.216 91.872 86.216 50.744 0 91.92-38.656 91.92-86.216zM948.032 14.44c0 56.312 0 133.44 0 151.504 0 29.264-66.888 41.84-66.888 41.84l-89.904-75.264c0 0-62.72 64.768-87.816 73.168-25.096 8.344-63.424-31.392-63.424-31.392v-159.856h308.032z" />
<glyph unicode="&#xe153;" glyph-name="person-statistics" d="M526.864 475.624v462.080c127.488 0 242.192-50.984 326.12-134.92 83.904-83.92 134.88-198.632 134.88-326.096h-230.48l-230.52-1.064zM880.352 72.288c5.36 5.072 10.616 10.224 15.68 15.512v34.328l-59.56-49.84h43.88zM659.68 350.424l-9.584 13.648h17.472c11.048 17.032 25.376 31.808 42.176 43.576h-146.76l80.624-114.84c1.456 20.584 7.072 40 16.072 57.616zM940.392 364.072h25.168c0-16.904-1.472-33.616-4.096-50.072 2.24-10.256 3.44-20.896 3.44-31.808 0-10.064-1.088-19.832-2.984-29.392 10.848-5.16 20.472-11.128 28.808-17.736 21.624 54.072 33.272 112.424 33.272 172.584h-125.808c16.808-11.776 31.128-26.544 42.2-43.576zM898.832 282.192c0-49.128-42.504-88.968-94.88-88.968-52.344 0-94.84 39.84-94.84 88.968 0 49.096 42.504 89 94.84 89 52.384 0 94.88-39.904 94.88-89zM962.096 6.224c0 58.136 0 137.744 0 156.392 0 30.224-69.048 43.184-69.048 43.184l-92.808-77.672c0 0-64.744 66.832-90.648 75.512-25.896 8.608-65.464-32.392-65.464-32.392v-165.032h317.968zM594.592 189.512l-0.016 27.616c0.072 0.064-0.064 5.352 0 5.416l-133.56 196.784v461.008c-254.936 0-461.016-206.080-461.016-461.008 0-254.936 206.080-461.040 461.016-461.040 39.744 0 95.512 6.424 133.576 16.512v214.712z" />
<glyph unicode="&#xe154;" glyph-name="correction-app" d="M864 928h128v-129.344h-128v129.344zM391.328 236.352c0 183.52 148.768 332.352 332.352 332.352 37.664 0 74.592-6.56 108.352-18.080v217.376h-320.032v96c-160 192-288 0-288 0l-0.704-96h-223.296v-299.648h86.816c0 0 111.648-37.12 111.648-148.576 0-111.392-111.648-148.576-111.648-148.576h-86.816v-235.2h210.88v86.656c0 0 12.416 111.424 148.832 111.424 19.072 0 35.456-2.336 50.016-6.080-11.712 33.984-18.4 70.336-18.4 108.352zM161.248-26.848h-124.064v123.808h124.064v-123.808zM723.648 496.928c-143.904 0-260.608-116.672-260.608-260.608s116.672-260.608 260.608-260.608 260.608 116.672 260.608 260.608c0 143.936-116.704 260.608-260.608 260.608zM662.048 41.664l-11.2 11.232-134.432 134.4 67.232 67.2 89.6-89.6 201.632 201.6 56-56-268.832-268.832z" />
<glyph unicode="&#xe155;" glyph-name="marital-status-partner" d="M741.472 861.888l-85.44 87.968-63.232-87.968zM642.016 960h-117.248l55.392-80.32zM568.032 861.888l-55.968 85.152-55.712-85.152zM497.696 960h-113.536l57.216-84zM370.336 951.808l-81.216-89.92h137.504zM292.928 845.568l195.712-246.624-57.088 246.624zM562.176 845.568h-106.624l61.056-273.856zM587.232 845.568l-45.728-245.12 200.256 245.12zM851.232 291.776c0-162.432-152.192-294.56-339.232-294.56-6.208 0-12.32 0.544-18.464 0.8l-87.808-50.272c33.952-7.616 69.536-11.744 106.272-11.744 229.76 0 416.032 159.296 416.032 355.776 0 52.672-13.44 102.624-37.504 147.584l-50.912-72.096c7.424-24.096 11.616-49.344 11.616-75.488zM602.016 638.912l-50.432-54.752c39.776-4.064 77.376-14.304 111.808-29.248l37.824 53.536c-31.040 13.536-64.288 23.872-99.2 30.464zM172.768 291.776c0 151.648 132.736 276.864 302.656 292.768l-54.144 54.208c-186.080-35.424-325.312-177.184-325.312-346.976 0-157.536 119.776-291.072 285.664-337.856l11.296 62.368c-128.416 42.048-220.16 149.504-220.16 275.488zM464.416 216.352l251.616 356.256 152.448-107.68-251.584-356.288-152.48 107.712zM742.624 501.696l-16.704 11.776-202.496-286.752 16.672-11.776 202.528 286.752zM776.064 478.112l-16.736 11.808-202.464-286.752 16.672-11.808 202.528 286.752zM809.504 454.56l-16.704 11.776-202.496-286.752 16.672-11.776 202.528 286.752zM764.288 640c13.248 18.752 39.040 23.296 57.568 10.144l84.064-59.36c18.592-13.12 22.88-38.912 9.632-57.6l-36.64-51.936-151.264 106.816 36.64 51.936zM457.344 197.728l144.32-102.016-101.312-56.832-62.72 44.32 19.712 114.528zM481.12 28.672l-58.72-33.632 12.032 66.56 46.688-32.928z" />
<glyph unicode="&#xe156;" glyph-name="origin-change" d="M450.016 63.392c55.584-77.024 98.528-127.392 98.528-127.392s202.048 237.6 297.248 471.072c-141.664-122.944-312.768-271.52-395.776-343.68zM379.648 544.864c-16.416 26.144-26.304 56.896-26.304 90.048 0 94.176 76.384 170.56 170.528 170.56 42.24 0 80.384-15.936 110.176-41.376l122.304 105.472c-61.376 56.032-142.848 90.432-232.512 90.432-190.976 0-345.632-154.72-345.632-345.664 0-62.912 18.4-132.736 46.528-203.040l154.912 133.568zM184.8 339.296l496.864 429.28 183.744-212.576-496.896-429.408-183.712 212.704zM694.912 655.36l-20.128 23.264-399.968-345.6 20.128-23.328 399.968 345.664zM735.136 608.768l-20.128 23.296-399.904-345.696 20.128-23.264 399.904 345.664zM775.36 562.144l-20.224 23.328-399.84-345.568 20.224-23.328 399.84 345.568zM776.736 849.632c26.016 22.496 65.472 19.84 87.68-6.016l101.376-117.248c22.336-25.888 19.296-65.056-6.816-87.648l-72.416-62.56-182.304 210.944 72.48 62.528zM167.744 314.528l173.888-201.376-168.704-46.304-75.584 87.36 70.4 160.32zM141.184 58.848l-97.952-27.744 41.6 92.832 56.352-65.088z" />
<glyph unicode="&#xe157;" glyph-name="change-residence-type" d="M64 32h896v-64h-896v64zM942.496 573.376c-23.392-20.672-51.68-45.6-82.944-73.184h164.448l-81.504 73.184zM511.968 798.784l100.704-88.064 89.504 78.464-190.176 170.816-512-459.808h170.624zM316.544 380.64l403.648 354.688 151.744-172.672-403.584-354.784-151.808 172.768zM731.808 642.72l-16.672 18.976-324.864-285.504 16.608-19.008 324.928 285.536zM764.992 604.864l-16.608 18.944-324.864-285.536 16.608-18.944 324.864 285.536zM798.304 567.040l-16.672 19.008-324.864-285.568 16.608-18.976 324.928 285.536zM797.44 802.272c21.152 18.624 53.376 16.704 71.744-4.352l83.776-95.2c18.56-21.024 16.288-53.152-4.928-71.808l-58.848-51.712-150.592 171.36 58.848 51.712zM302.72 360.256l143.616-163.488-137.664-39.104-62.496 71.136 56.544 131.456zM282.656 150.944l-80-23.392 33.6 76.288 46.4-52.896z" />
<glyph unicode="&#xe158;" glyph-name="cloud-printing" d="M915.296 595.488c0 0-13.024 295.392-252.192 161.984 0 0-10.88 202.528-234.816 202.528-245.664 0-245.664-257.312-245.664-257.312s-182.624 9.536-182.624-152.512c0-171.52 113.056-183.424 113.056-183.424h14.944v8c0 57.152 46.624 103.616 103.968 103.616h16.032v55.84c0 57.184 46.624 103.712 103.968 103.712h320.032c57.344 0 104-46.528 104-103.712v-55.84h16c57.344 0 104-46.464 104-103.616v-8h38.88c0 0 89.12 9.536 89.12 107.232 0 140.544-108.704 121.504-108.704 121.504zM792 414.56h-560.032c-22.048 0-39.968-17.856-39.968-39.808v-239.328c0-22.080 17.92-39.904 39.968-39.904h80.032v-119.648c0-22.048 17.92-39.872 39.968-39.872h320.032c22.080 0 40 17.824 40 39.872v119.648h80c22.048 0 40 17.824 40 39.904v239.328c0 21.952-17.952 39.808-40 39.808zM672-24.128h-320.032v239.328h320.032v-239.328zM752 294.944c-22.048 0-40 17.888-40 39.904s17.952 39.904 40 39.904 40-17.92 40-39.904c0-22.048-17.952-39.904-40-39.904zM384 64h200v-39.872h-200v39.872zM384 160h240v-39.872h-240v39.872zM351.968 534.208h320.032v-79.744h40v79.744c0 22.048-17.92 39.904-40 39.904h-320.032c-22.048 0-39.968-17.856-39.968-39.904v-79.744h39.968v79.744z" />
<glyph unicode="&#xe159;" glyph-name="report-admin" d="M0 857.6h1024v-48.384h-1024v48.384zM489.152 857.6v45.536h79.648v-45.536h56.864l-0.48 81.088c0 0 0.48 21.312-22.24 21.312-22.784 0-147.936 0-147.936 0s-22.752 0-22.752-22.752 0-79.648 0-79.648h56.896zM821.536 307.264c0-27.164-25.301-49.184-56.512-49.184s-56.512 22.020-56.512 49.184c0 27.164 25.301 49.184 56.512 49.184s56.512-22.020 56.512-49.184zM521.248 211.776c9.632 10.016 36.64 35.456 70.24 50.016-4.128 14.496-6.528 29.728-6.528 45.44 0 95.264 80.768 172.736 180.032 172.736 99.328 0 180.128-77.504 180.128-172.736 0-16.992-2.688-33.344-7.424-48.832 7.808-3.040 15.808-6.816 23.68-11.008v536.288h-898.752v-580.544h450.304l8.32 8.64zM119.52 299.072v70.688l199.072 151.424 153.6-121.152 102.368 217.056 113.792-35.328 216.16 141.312v-70.656l-216.16-131.264-85.344 35.328-119.424-232.224-170.624 126.176-193.44-151.36zM883.36 307.264c0-61.29-52.967-110.976-118.304-110.976s-118.304 49.686-118.304 110.976c0 61.29 52.967 110.976 118.304 110.976s118.304-49.686 118.304-110.976zM962.208-36.864c0 72.48 0 171.744 0 195.040 0 37.664-86.080 53.856-86.080 53.856l-115.744-96.864c0 0-80.704 83.36-113.024 94.144-32.288 10.752-81.632-40.384-81.632-40.384v-205.792h396.48z" />
<glyph unicode="&#xe15a;" glyph-name="worklist" d="M884.576 732.992c0 0 0.96 67.008-67.328 67.008-68.352 0-136.672 0-136.672 0s-1.888 158.944-160.384 158.944c-158.528 0-158.528-158.944-158.528-158.944s-91.104 0-159.424 0c-68.32 0-74.24-67.2-74.24-67.2v-706.976c0 0 5.92-89.824 97.024-89.824s568.928 0 568.928 0 91.584-1.28 91.584 90.272c0 91.616-0.96 706.72-0.96 706.72zM832 0h-640v736h640v-736zM224 704v-640h576v640h-576zM384 128h-96v96h96v-96zM384 320h-96v96h96v-96zM384 512h-96v96h96v-96zM541.888 271.392l-74.016 102.464 51.264 34.176 45.568-56.96 134.88 101.44 35.936-50.208-193.632-130.912zM541.888 464.992l-74.016 102.496 51.264 34.176 45.568-56.928 134.88 101.408 35.936-50.176-193.632-130.976z" />
</font>
</defs>
</svg>
